<svg xmlns="http://www.w3.org/2000/svg" xmlns:xlink="http://www.w3.org/1999/xlink" width="1380px" height="760px" viewBox="0 0 1380 760" preserveAspectRatio="xMidYMid meet" ><rect id="svgEditorBackground" x="0" y="0" width="1380" height="760" style="fill: none; stroke: none;"/><defs id="svgEditorDefs"><path id="svgEditorClosePathDefs" style="stroke:black;stroke-width:1px;fill:khaki;"/></defs><polygon style="stroke:none;fill:#595959;stroke-width:1px;" id="e12_polygon" points="18 172 103 58 125 83 168 29 210 94 249 53 269 85 328 32 353 75 366 55 393 99 452 28 500 99 553 49 573 80 623 19 661 62 691 27 728 72 751 43 817 164 837 296 34 265" transform="matrix(1.48484 0.000578947 -0.000578947 1.48484 -3.71416 -1.541)"/><polygon style="stroke:none;fill:#4D4D4D;stroke-width:1px;" id="e23_polygon" points="38 169 115 121 137 142 187 111 235 167 255 145 274 168 311 130 341 184 379 163 421 209 498 210 541 181 580 137 603 152 628 122 655 158 696 127 723 158 761 120 807 178 857 362 18 356" transform="matrix(1.48484 0.000578947 -0.000578947 1.48484 -3.71416 -1.541)"/><polygon style="stroke:black;fill:none;" stroke-width="1" id="e14_polygon" points="29 312" transform="matrix(1.48484 0.000578947 -0.000578947 1.48484 -3.71416 -1.541)"/><path d="M51,231c28.075123700900008,-20.400227822700003,111.81076039150003,-39.27271671469998,145,-29c33.189239608499975,10.272716714800026,100.78763175030002,48.818780166800025,108,46c59.212368249799965,-16.818780166800025,105.29042645799996,-23.780458929199995,169,-20c65.70957354200004,-3.2195410708000054,148.05716880269995,38.611241666299975,177,20c28.942831197300052,-18.611241666299975,70.11109442689997,-63.74043388450002,99,-62c28.888905573199963,1.7404338845000211,85.56853574479999,31.651372655399996,99,59c13.431464255299943,27.348627344600004,21.788498520999838,8.56396661680003,27,172c-8.788498520999838,79.43603338319997,-841.4883133952001,67.55309378430002,-847,13c-5.511686604700003,-186.55309378419997,-5.075123700799992,-178.5997721773,23,-199Z" style="stroke:non;fill:#404040;stroke-width:1px;" id="e16_area3" transform="matrix(1.48484 0.000578947 -0.000578947 1.48484 -3.71416 -1.541)"/><path d="M7,507c15.466419664499995,-55.818397559699974,75.6519515002,-104.39566554520002,165,-106c52.34804849990002,-1.6043344547999823,76.11860869370003,46.52432337120001,123,43c98.88139130640002,-11.524323371200012,63.86389475070001,-35.9261233272,175,-69c82.13610524930004,-15.073876672799997,160.53495278180003,24.63665408969996,252,49c107.46504721830001,-4.636654089700016,166.11845426550008,-41.44661267359999,278,-62c99.88154573449992,-8.553387326300026,224.54641475099993,25.20025833989996,285,106c0.4535852490000707,107.79974166010004,18.319868438999947,8.294695609400037,-2,174c-20.319868438899903,165.70530439059996,-1197.7202114013,179.73299153719995,-1230,13c-21.279788598599993,-44.73299153719995,-46.4664196644,-86.18160244019998,-46,-148Z" style="stroke:none;fill:#333333;stroke-width:1px;" id="e18_area3"/><path d="M40,574c61.891951366300006,-39.00848559389999,143.6690998043,-79.99290108390005,497,-108c301.33090019580004,-4.007098916100006,600.2117918137001,18.20702396910002,751,102c26.78820818639997,110.79297603090004,48.80917463569995,-15.381726537100008,9,154c-39.8091746355999,169.3817265371,-1198.0129362634,154.76459200800002,-1240,-12c-41.9870637366,-166.76459200800002,-78.89195136629999,-96.99151440610001,-17,-136Z" style="stroke:none;fill:#262626;stroke-width:1px;" id="e20_area3"/></svg>