<svg xmlns="http://www.w3.org/2000/svg" xmlns:xlink="http://www.w3.org/1999/xlink" width="1380px" height="810px" viewBox="0 -8.992806499463768e-14 1380 810" preserveAspectRatio="xMidYMid meet" ><rect id="svgEditorBackground" x="0" y="0" width="1380" height="810" style="fill: none; stroke: none;"/><polygon style="stroke:none;fill:yellow;stroke-width:1px;" id="e2_polygon" points="43004 -4154.09 43079 -4334.09 43137 -4151.09 42978 -4269.09 43180 -4266.09" transform="matrix(0.0406073 0.0004404 -0.0004404 0.0406073 -825.656 573.147)"/><polygon style="stroke:none;fill:yellow;stroke-width:1px;" id="e5_polygon" points="43790 -4209.09 43865 -4389.09 43923 -4206.09 43764 -4324.09 43966 -4321.09" transform="matrix(0.0406073 0.0004404 -0.0004404 0.0406073 -825.656 573.147)"/><polygon style="stroke:none;fill:yellow;stroke-width:1px;" id="e1_polygon" points="42446 -3293.09 42521 -3473.09 42579 -3290.09 42420 -3408.09 42622 -3405.09" transform="matrix(0.0406073 0.0004404 -0.0004404 0.0406073 -825.656 573.147)"/><polygon style="stroke:none;fill:yellow;stroke-width:1px;" id="e3_polygon" points="41858 -3333.09 41933 -3513.09 41991 -3330.09 41832 -3448.09 42034 -3445.09" transform="matrix(0.0406073 0.0004404 -0.0004404 0.0406073 -825.656 573.147)"/><polygon style="stroke:none;fill:yellow;stroke-width:1px;" id="e4_polygon" points="41394 -5177.09 41657 -5925.09 41947 -5226.09 41284 -5604.09 42106 -5689.09" transform="matrix(0.0406073 0.0004404 -0.0004404 0.0406073 -825.656 573.147)"/><polygon style="stroke:none;fill:yellow;stroke-width:1px;" id="e6_polygon" points="46506 -4925.09 46769 -5673.09 47059 -4974.09 46396 -5352.09 47218 -5437.09" transform="matrix(0.0406073 0.0004404 -0.0004404 0.0406073 -825.656 573.147)"/><polygon style="stroke:none;fill:yellow;stroke-width:1px;" id="e7_polygon" points="41634 -2585.08 41897 -3333.09 42187 -2634.08 41524 -3012.08 42346 -3097.08" transform="matrix(0.0406073 0.0004404 -0.0004404 0.0406073 -825.656 573.147)"/><polygon style="stroke:none;fill:yellow;stroke-width:1px;" id="e8_polygon" points="45406 -1909.08 45669 -2657.08 45959 -1958.08 45296 -2336.08 46118 -2421.08" transform="matrix(0.0406073 0.0004404 -0.0004404 0.0406073 -825.656 573.147)"/><polygon style="stroke:none;fill:yellow;stroke-width:1px;" id="e10_polygon" points="38694 -6761.1 38957 -7509.1 39247 -6810.1 38584.1 -7188.1 39406 -7273.1" transform="matrix(0.0406073 0.0004404 -0.0004404 0.0406073 -825.656 573.147)"/><polygon style="stroke:none;fill:yellow;stroke-width:1px;" id="e11_polygon" points="36778.1 -8285.1 37041.1 -9033.09 37331 -8334.1 36668 -8712.09 37490 -8797.09" transform="matrix(0.0406073 0.0004404 -0.0004404 0.0406073 -825.656 573.147)"/><polygon style="stroke:none;fill:yellow;stroke-width:1px;" id="e13_polygon" points="44700 -9914.09 44775 -10094.1 44833 -9911.09 44674 -10029.1 44876 -10026.1" transform="matrix(0.0406073 0.0004404 -0.0004404 0.0406073 -825.656 573.147)"/><polygon style="stroke:none;fill:yellow;stroke-width:1px;" id="e14_polygon" points="34012.1 -13434.1 34087.1 -13614.1 34145.1 -13431.1 33986.1 -13549.1 34188.1 -13546.1" transform="matrix(0.0406073 0.0004404 -0.0004404 0.0406073 -825.656 573.147)"/><polygon style="stroke:none;fill:yellow;stroke-width:1px;" id="e15_polygon" points="34108.1 -12026.1 34183.1 -12206.1 34241.1 -12023.1 34082.1 -12141.1 34284.1 -12138.1" transform="matrix(0.0406073 0.0004404 -0.0004404 0.0406073 -825.656 573.147)"/><polygon style="stroke:none;fill:yellow;stroke-width:1px;" id="e16_polygon" points="27068.1 -4154.09 27143.1 -4334.09 27201.1 -4151.09 27042.1 -4269.09 27244.1 -4266.09" transform="matrix(0.0406073 0.0004404 -0.0004404 0.0406073 -825.656 573.147)"/><polygon style="stroke:none;fill:yellow;stroke-width:1px;" id="e17_polygon" points="26780.1 -3930.09 26855.1 -4110.09 26913.1 -3927.09 26754.1 -4045.09 26956.1 -4042.09" transform="matrix(0.0406073 0.0004404 -0.0004404 0.0406073 -825.656 573.147)"/><polygon style="stroke:none;fill:yellow;stroke-width:1px;" id="e18_polygon" points="26780.1 -4090.09 26855.1 -4270.09 26913.1 -4087.09 26754.1 -4205.09 26956.1 -4202.09" transform="matrix(0.0406073 0.0004404 -0.0004404 0.0406073 -825.656 573.147)"/><polygon style="stroke:none;fill:yellow;stroke-width:1px;" id="e19_polygon" points="26940.1 -3898.09 27015.1 -4078.09 27073.1 -3895.09 26914.1 -4013.09 27116.1 -4010.09" transform="matrix(0.0406073 0.0004404 -0.0004404 0.0406073 -825.656 573.147)"/><polygon style="stroke:none;fill:yellow;stroke-width:1px;" id="e20_polygon" points="27140.1 -3794.09 27215.1 -3974.09 27273.1 -3791.09 27114.1 -3909.09 27316.1 -3906.09" transform="matrix(0.0406073 0.0004404 -0.0004404 0.0406073 -825.656 573.147)"/><polygon style="stroke:none;fill:yellow;stroke-width:1px;" id="e21_polygon" points="36892.1 -10490.1 36967.1 -10670.1 37025.1 -10487.1 36866.1 -10605.1 37068.1 -10602.1" transform="matrix(0.0406073 0.0004404 -0.0004404 0.0406073 -825.656 573.147)"/><polygon style="stroke:none;fill:yellow;stroke-width:1px;" id="e22_polygon" points="26908.1 -3706.09 26983.1 -3886.09 27041.1 -3703.09 26882.1 -3821.09 27084.1 -3818.09" transform="matrix(0.0406073 0.0004404 -0.0004404 0.0406073 -825.656 573.147)"/><polygon style="stroke:none;fill:yellow;stroke-width:1px;" id="e23_polygon" points="27036.1 -3514.09 27111.1 -3694.09 27169.1 -3511.09 27010.1 -3629.09 27212.1 -3626.09" transform="matrix(0.0406073 0.0004404 -0.0004404 0.0406073 -825.656 573.147)"/><polygon style="stroke:none;fill:yellow;stroke-width:1px;" id="e24_polygon" points="42284 -502.08 42475 -954.079 42601 -467.081 42238 -809.068 42712 -766.075" transform="matrix(0.0406073 0.0004404 -0.0004404 0.0406073 -825.656 573.147)"/><polygon style="stroke:none;fill:yellow;stroke-width:1px;" id="e31_polygon" points="28940.1 -12406.1 29131.1 -12858.1 29257.1 -12371.1 28894.1 -12713.1 29368.1 -12670.1" transform="matrix(0.0406073 0.0004404 -0.0004404 0.0406073 -825.656 573.147)"/><polygon style="stroke:none;fill:yellow;stroke-width:1px;" id="e32_polygon" points="26380.1 -7990.09 26571.1 -8442.09 26697.1 -7955.09 26334.1 -8297.08 26808.1 -8254.09" transform="matrix(0.0406073 0.0004404 -0.0004404 0.0406073 -825.656 573.147)"/><polygon style="stroke:none;fill:yellow;stroke-width:1px;" id="e33_polygon" points="26156.1 -8694.08 26347.1 -9146.08 26473.1 -8659.09 26110.1 -9001.07 26584.1 -8958.08" transform="matrix(0.0406073 0.0004404 -0.0004404 0.0406073 -825.656 573.147)"/><polygon style="stroke:none;fill:yellow;stroke-width:1px;" id="e39_polygon" points="23916.1 489.925 24107.1 37.9251 24233.1 524.925 23870.1 182.935 24344.1 225.925" transform="matrix(0.0406073 0.0004404 -0.0004404 0.0406073 -825.656 573.147)"/><polygon style="stroke:none;fill:yellow;stroke-width:1px;" id="e40_polygon" points="46076 -10778.1 46151 -10958.1 46209 -10775.1 46050 -10893.1 46252 -10890.1" transform="matrix(0.0406073 0.0004404 -0.0004404 0.0406073 -825.656 573.147)"/><polygon style="stroke:none;fill:yellow;stroke-width:1px;" id="e41_polygon" points="43516 -8314.1 43591 -8494.1 43649 -8311.1 43490 -8429.1 43692 -8426.1" transform="matrix(0.0406073 0.0004404 -0.0004404 0.0406073 -825.656 573.147)"/><polygon style="stroke:none;fill:yellow;stroke-width:1px;" id="e42_polygon" points="28668.1 -9466.09 28743.1 -9646.09 28801.1 -9463.09 28642.1 -9581.09 28844.1 -9578.09" transform="matrix(0.0406073 0.0004404 -0.0004404 0.0406073 -825.656 573.147)"/><polygon style="stroke:none;fill:yellow;stroke-width:1px;" id="e43_polygon" points="27164.1 -4058.09 27239.1 -4238.09 27297.1 -4055.09 27138.1 -4173.09 27340.1 -4170.09" transform="matrix(0.0406073 0.0004404 -0.0004404 0.0406073 -825.656 573.147)"/><polygon style="stroke:none;fill:yellow;stroke-width:1px;" id="e44_polygon" points="44572 -8442.1 44647 -8622.1 44705 -8439.1 44546 -8557.1 44748 -8554.1" transform="matrix(0.0406073 0.0004404 -0.0004404 0.0406073 -825.656 573.147)"/><polygon style="stroke:none;fill:yellow;stroke-width:1px;" id="e45_polygon" points="38380 -4630.08 38571 -5082.08 38697 -4595.08 38334 -4937.07 38808 -4894.08" transform="matrix(0.0406073 0.0004404 -0.0004404 0.0406073 -825.656 573.147)"/><polygon style="stroke:none;fill:yellow;stroke-width:1px;" id="e46_polygon" points="36268 -7786.09 36443.1 -8126.09 36521 -7767.09 36238 -8013.08 36616 -8002.09" transform="matrix(0.0406073 0.0004404 -0.0004404 0.0406073 -825.656 573.147)"/><polygon style="stroke:none;fill:yellow;stroke-width:1px;" id="e48_polygon" points="32684.1 -3958.08 32875.1 -4410.08 33001.1 -3923.08 32638.1 -4265.07 33112.1 -4222.08" transform="matrix(0.0406073 0.0004404 -0.0004404 0.0406073 -825.656 573.147)"/><polygon style="stroke:none;fill:yellow;stroke-width:1px;" id="e50_polygon" points="30220.1 -9206.08 30411.1 -9658.08 30537.1 -9171.08 30174.1 -9513.07 30648.1 -9470.08" transform="matrix(0.0406073 0.0004404 -0.0004404 0.0406073 -825.656 573.147)"/><polygon style="stroke:none;fill:yellow;stroke-width:1px;" id="e51_polygon" points="28108.1 1193.93 28299.1 741.925 28425.1 1228.93 28062.1 886.936 28536.1 929.925" transform="matrix(0.0406073 0.0004404 -0.0004404 0.0406073 -825.656 573.147)"/><polygon style="stroke:none;fill:yellow;stroke-width:1px;" id="e52_polygon" points="29068.1 1577.93 29259.1 1125.93 29385.1 1612.93 29022.1 1270.94 29496.1 1313.93" transform="matrix(0.0406073 0.0004404 -0.0004404 0.0406073 -825.656 573.147)"/><polygon style="stroke:none;fill:yellow;stroke-width:1px;" id="e53_polygon" points="24076.1 -6966.09 24267.1 -7418.09 24393.1 -6931.09 24030.1 -7273.08 24504.1 -7230.09" transform="matrix(0.0406073 0.0004404 -0.0004404 0.0406073 -825.656 573.147)"/><polygon style="stroke:none;fill:yellow;stroke-width:1px;" id="e54_polygon" points="27308.1 -10038.1 27499.1 -10490.1 27625.1 -10003.1 27262.1 -10345.1 27736.1 -10302.1" transform="matrix(0.0406073 0.0004404 -0.0004404 0.0406073 -825.656 573.147)"/><polygon style="stroke:none;fill:yellow;stroke-width:1px;" id="e57_polygon" points="32492.1 -5430.08 32683.1 -5882.08 32809.1 -5395.08 32446.1 -5737.07 32920.1 -5694.08" transform="matrix(0.0406073 0.0004404 -0.0004404 0.0406073 -825.656 573.147)"/><polygon style="stroke:none;fill:yellow;stroke-width:1px;" id="e58_polygon" points="30972.1 -6714.1 31047.1 -6894.1 31105.1 -6711.1 30946.1 -6829.1 31148.1 -6826.1" transform="matrix(0.0406073 0.0004404 -0.0004404 0.0406073 -825.656 573.147)"/><polygon style="stroke:none;fill:yellow;stroke-width:1px;" id="e59_polygon" points="35228.1 -9786.09 35303.1 -9966.09 35361.1 -9783.09 35202.1 -9901.09 35404.1 -9898.09" transform="matrix(0.0406073 0.0004404 -0.0004404 0.0406073 -825.656 573.147)"/><polygon style="stroke:none;fill:yellow;stroke-width:1px;" id="e60_polygon" points="33244.1 -10874.1 33319.1 -11054.1 33377.1 -10871.1 33218.1 -10989.1 33420.1 -10986.1" transform="matrix(0.0406073 0.0004404 -0.0004404 0.0406073 -825.656 573.147)"/><polygon style="stroke:none;fill:yellow;stroke-width:1px;" id="e61_polygon" points="39324 -8090.09 39399 -8270.1 39457 -8087.09 39298 -8205.1 39500 -8202.09" transform="matrix(0.0406073 0.0004404 -0.0004404 0.0406073 -825.656 573.147)"/><polygon style="stroke:none;fill:yellow;stroke-width:1px;" id="e62_polygon" points="29372.1 -11930.1 29447.1 -12110.1 29505.1 -11927.1 29346.1 -12045.1 29548.1 -12042.1" transform="matrix(0.0406073 0.0004404 -0.0004404 0.0406073 -825.656 573.147)"/><polygon style="stroke:none;fill:yellow;stroke-width:1px;" id="e63_polygon" points="29724.1 -13082.1 29799.1 -13262.1 29857.1 -13079.1 29698.1 -13197.1 29900.1 -13194.1" transform="matrix(0.0406073 0.0004404 -0.0004404 0.0406073 -825.656 573.147)"/><polygon style="stroke:none;fill:yellow;stroke-width:1px;" id="e64_polygon" points="31676.1 -8794.09 31751.1 -8974.09 31809.1 -8791.09 31650.1 -8909.09 31852.1 -8906.09" transform="matrix(0.0406073 0.0004404 -0.0004404 0.0406073 -825.656 573.147)"/><polygon style="stroke:none;fill:yellow;stroke-width:1px;" id="e65_polygon" points="31036.1 -8538.1 31111.1 -8718.09 31169.1 -8535.1 31010.1 -8653.1 31212.1 -8650.1" transform="matrix(0.0406073 0.0004404 -0.0004404 0.0406073 -825.656 573.147)"/><polygon style="stroke:none;fill:yellow;stroke-width:1px;" id="e66_polygon" points="27260.1 -11386.1 27335.1 -11566.1 27393.1 -11383.1 27234.1 -11501.1 27436.1 -11498.1" transform="matrix(0.0406073 0.0004404 -0.0004404 0.0406073 -825.656 573.147)"/><polygon style="stroke:none;fill:yellow;stroke-width:1px;" id="e67_polygon" points="28188.1 -6906.1 28263.1 -7086.1 28321.1 -6903.1 28162.1 -7021.1 28364.1 -7018.1" transform="matrix(0.0406073 0.0004404 -0.0004404 0.0406073 -825.656 573.147)"/><polygon style="stroke:none;fill:yellow;stroke-width:1px;" id="e68_polygon" points="27164.1 -8314.1 27239.1 -8494.1 27297.1 -8311.1 27138.1 -8429.1 27340.1 -8426.1" transform="matrix(0.0406073 0.0004404 -0.0004404 0.0406073 -825.656 573.147)"/><polygon style="stroke:none;fill:yellow;stroke-width:1px;" id="e69_polygon" points="37084.1 -10554.1 37159.1 -10734.1 37217.1 -10551.1 37058.1 -10669.1 37260.1 -10666.1" transform="matrix(0.0406073 0.0004404 -0.0004404 0.0406073 -825.656 573.147)"/><polygon style="stroke:none;fill:yellow;stroke-width:1px;" id="e70_polygon" points="30588.1 -7130.1 30663.1 -7310.1 30721.1 -7127.1 30562.1 -7245.1 30764.1 -7242.1" transform="matrix(0.0406073 0.0004404 -0.0004404 0.0406073 -825.656 573.147)"/><polygon style="stroke:none;fill:yellow;stroke-width:1px;" id="e71_polygon" points="31196.1 -4954.09 31271.1 -5134.09 31329.1 -4951.09 31170.1 -5069.09 31372.1 -5066.09" transform="matrix(0.0406073 0.0004404 -0.0004404 0.0406073 -825.656 573.147)"/><polygon style="stroke:none;fill:yellow;stroke-width:1px;" id="e72_polygon" points="29820.1 -5306.09 29895.1 -5486.09 29953.1 -5303.09 29794.1 -5421.09 29996.1 -5418.09" transform="matrix(0.0406073 0.0004404 -0.0004404 0.0406073 -825.656 573.147)"/><polygon style="stroke:none;fill:yellow;stroke-width:1px;" id="e73_polygon" points="27740.1 2149.92 27815.1 1969.92 27873.1 2152.92 27714.1 2034.92 27916.1 2037.92" transform="matrix(0.0406073 0.0004404 -0.0004404 0.0406073 -825.656 573.147)"/><polygon style="stroke:none;fill:yellow;stroke-width:1px;" id="e74_polygon" points="27228.1 -4762.09 27303.1 -4942.09 27361.1 -4759.09 27202.1 -4877.09 27404.1 -4874.09" transform="matrix(0.0406073 0.0004404 -0.0004404 0.0406073 -825.656 573.147)"/><polygon style="stroke:none;fill:yellow;stroke-width:1px;" id="e75_polygon" points="27900.1 -570.085 27975.1 -750.085 28033.1 -567.085 27874.1 -685.085 28076.1 -682.085" transform="matrix(0.0406073 0.0004404 -0.0004404 0.0406073 -825.656 573.147)"/><polygon style="stroke:none;fill:yellow;stroke-width:1px;" id="e76_polygon" points="27388.1 -1882.08 27463.1 -2062.08 27521.1 -1879.08 27362.1 -1997.08 27564.1 -1994.08" transform="matrix(0.0406073 0.0004404 -0.0004404 0.0406073 -825.656 573.147)"/><polygon style="stroke:none;fill:yellow;stroke-width:1px;" id="e77_polygon" points="35100.1 -8026.09 35175.1 -8206.1 35233.1 -8023.09 35074.1 -8141.09 35276.1 -8138.09" transform="matrix(0.0406073 0.0004404 -0.0004404 0.0406073 -825.656 573.147)"/><polygon style="stroke:none;fill:yellow;stroke-width:1px;" id="e78_polygon" points="27772.1 -6618.1 27847.1 -6798.1 27905.1 -6615.1 27746.1 -6733.1 27948.1 -6730.1" transform="matrix(0.0406073 0.0004404 -0.0004404 0.0406073 -825.656 573.147)"/><polygon style="stroke:none;fill:yellow;stroke-width:1px;" id="e79_polygon" points="26460.1 -7514.1 26535.1 -7694.1 26593.1 -7511.1 26434.1 -7629.1 26636.1 -7626.1" transform="matrix(0.0406073 0.0004404 -0.0004404 0.0406073 -825.656 573.147)"/><polygon style="stroke:none;fill:yellow;stroke-width:1px;" id="e80_polygon" points="26460.1 -6842.1 26535.1 -7022.1 26593.1 -6839.1 26434.1 -6957.1 26636.1 -6954.1" transform="matrix(0.0406073 0.0004404 -0.0004404 0.0406073 -825.656 573.147)"/><polygon style="stroke:none;fill:yellow;stroke-width:1px;" id="e81_polygon" points="23324 -4218.09 23399 -4398.09 23457 -4215.09 23298 -4333.09 23500 -4330.09" transform="matrix(0.0406073 0.0004404 -0.0004404 0.0406073 -825.656 573.147)"/><polygon style="stroke:none;fill:yellow;stroke-width:1px;" id="e82_polygon" points="23868.1 -9274.09 23943.1 -9454.09 24001.1 -9271.09 23842.1 -9389.09 24044.1 -9386.09" transform="matrix(0.0406073 0.0004404 -0.0004404 0.0406073 -825.656 573.147)"/><polygon style="stroke:none;fill:yellow;stroke-width:1px;" id="e12_polygon" points="31156 -7490.09 31331.1 -7830.09 31409.1 -7471.09 31126 -7717.08 31504.1 -7706.09" transform="matrix(0.0406073 0.0004404 -0.0004404 0.0406073 -825.656 573.147)"/><polygon style="stroke:none;fill:yellow;stroke-width:1px;" id="e9_polygon" points="45300 -5826.08 45475 -6166.09 45553 -5807.08 45270 -6053.08 45648 -6042.08" transform="matrix(0.0406073 0.0004404 -0.0004404 0.0406073 -825.656 573.147)"/><polygon style="stroke:none;fill:yellow;stroke-width:1px;" id="e29_polygon" points="25268.1 -4898.08 25443.1 -5238.08 25521.1 -4879.08 25238.1 -5125.07 25616.1 -5114.08" transform="matrix(0.0406073 0.0004404 -0.0004404 0.0406073 -825.656 573.147)"/><polygon style="stroke:none;fill:yellow;stroke-width:1px;" id="e30_polygon" points="30164.1 -866.075 30339.1 -1206.07 30417.1 -847.075 30134.1 -1093.07 30512.1 -1082.07" transform="matrix(0.0406073 0.0004404 -0.0004404 0.0406073 -825.656 573.147)"/><polygon style="stroke:none;fill:yellow;stroke-width:1px;" id="e35_polygon" points="25908.1 1661.93 26083.1 1321.93 26161.1 1680.93 25878.1 1434.94 26256.1 1445.93" transform="matrix(0.0406073 0.0004404 -0.0004404 0.0406073 -825.656 573.147)"/><polygon style="stroke:none;fill:yellow;stroke-width:1px;" id="e36_polygon" points="40692 -10466.1 40867 -10806.1 40945 -10447.1 40662 -10693.1 41040 -10682.1" transform="matrix(0.0406073 0.0004404 -0.0004404 0.0406073 -825.656 573.147)"/><polygon style="stroke:none;fill:yellow;stroke-width:1px;" id="e37_polygon" points="26036.1 -11714.1 26211.1 -12054.1 26289.1 -11695.1 26006.1 -11941.1 26384.1 -11930.1" transform="matrix(0.0406073 0.0004404 -0.0004404 0.0406073 -825.656 573.147)"/><polygon style="stroke:none;fill:yellow;stroke-width:1px;" id="e47_polygon" points="30164.1 -3490.08 30339.1 -3830.08 30417.1 -3471.08 30134.1 -3717.07 30512.1 -3706.08" transform="matrix(0.0406073 0.0004404 -0.0004404 0.0406073 -825.656 573.147)"/><polygon style="stroke:none;fill:yellow;stroke-width:1px;" id="e49_polygon" points="26708.1 -226.075 26883.1 -566.076 26961.1 -207.075 26678.1 -453.066 27056.1 -442.076" transform="matrix(0.0406073 0.0004404 -0.0004404 0.0406073 -825.656 573.147)"/><polygon style="stroke:none;fill:yellow;stroke-width:1px;" id="e55_polygon" points="29012.1 -7298.09 29187.1 -7638.09 29265.1 -7279.09 28982.1 -7525.08 29360.1 -7514.09" transform="matrix(0.0406073 0.0004404 -0.0004404 0.0406073 -825.656 573.147)"/><polygon style="stroke:none;fill:yellow;stroke-width:1px;" id="e26_polygon" points="42452 -11362.1 42627 -11702.1 42705 -11343.1 42422 -11589.1 42800 -11578.1" transform="matrix(0.0406073 0.0004404 -0.0004404 0.0406073 -825.656 573.147)"/><polygon style="stroke:none;fill:yellow;stroke-width:1px;" id="e27_polygon" points="42516 -10818.1 42691 -11158.1 42769 -10799.1 42486 -11045.1 42864 -11034.1" transform="matrix(0.0406073 0.0004404 -0.0004404 0.0406073 -825.656 573.147)"/><polygon style="stroke:none;fill:yellow;stroke-width:1px;" id="e25_polygon" points="24828.1 -3930.09 24903.1 -4110.09 24961.1 -3927.09 24802.1 -4045.09 25004.1 -4042.09" transform="matrix(0.0406073 0.0004404 -0.0004404 0.0406073 -825.656 573.147)"/><polygon style="stroke:none;fill:yellow;stroke-width:1px;" id="e28_polygon" points="23932.1 -4634.09 24007.1 -4814.09 24065.1 -4631.09 23906.1 -4749.09 24108.1 -4746.09" transform="matrix(0.0406073 0.0004404 -0.0004404 0.0406073 -825.656 573.147)"/><polygon style="stroke:none;fill:yellow;stroke-width:1px;" id="e34_polygon" points="24956.1 -2106.08 25031.1 -2286.08 25089.1 -2103.08 24930.1 -2221.08 25132.1 -2218.08" transform="matrix(0.0406073 0.0004404 -0.0004404 0.0406073 -825.656 573.147)"/><polygon style="stroke:none;fill:yellow;stroke-width:1px;" id="e38_polygon" points="24252.1 -2650.08 24327.1 -2830.08 24385.1 -2647.08 24226.1 -2765.08 24428.1 -2762.08" transform="matrix(0.0406073 0.0004404 -0.0004404 0.0406073 -825.656 573.147)"/><polygon style="stroke:none;fill:yellow;stroke-width:1px;" id="e56_polygon" points="29548.7 1470 29623.7 1290 29681.7 1473 29522.7 1355 29724.7 1358" transform="matrix(0.0406073 0.0004404 -0.0004404 0.0406073 -825.656 573.147)"/><polygon style="stroke:none;fill:yellow;stroke-width:1px;" id="e83_polygon" points="25116.1 -3642.09 25191.1 -3822.09 25249.1 -3639.09 25090.1 -3757.09 25292.1 -3754.09" transform="matrix(0.0406073 0.0004404 -0.0004404 0.0406073 -825.656 573.147)"/><polygon style="stroke:none;fill:yellow;stroke-width:1px;" id="e84_polygon" points="41820 -9210.09 41895 -9390.09 41953 -9207.09 41794 -9325.09 41996 -9322.09" transform="matrix(0.0406073 0.0004404 -0.0004404 0.0406073 -825.656 573.147)"/><polygon style="stroke:none;fill:yellow;stroke-width:1px;" id="e85_polygon" points="32796.1 -6810.1 32871.1 -6990.1 32929.1 -6807.1 32770.1 -6925.1 32972.1 -6922.1" transform="matrix(0.0406073 0.0004404 -0.0004404 0.0406073 -825.656 573.147)"/><polygon style="stroke:none;fill:yellow;stroke-width:1px;" id="e86_polygon" points="34028.1 -7722.1 34103.1 -7902.1 34161.1 -7719.1 34002.1 -7837.1 34204.1 -7834.1" transform="matrix(0.0406073 0.0004404 -0.0004404 0.0406073 -825.656 573.147)"/><polygon style="stroke:none;fill:yellow;stroke-width:1px;" id="e87_polygon" points="28924.1 -3418.09 28999.1 -3598.09 29057.1 -3415.09 28898.1 -3533.09 29100.1 -3530.09" transform="matrix(0.0406073 0.0004404 -0.0004404 0.0406073 -825.656 573.147)"/><polygon style="stroke:none;fill:yellow;stroke-width:1px;" id="e88_polygon" points="23612.1 -3770.09 23687.1 -3950.09 23745.1 -3767.09 23586.1 -3885.09 23788.1 -3882.09" transform="matrix(0.0406073 0.0004404 -0.0004404 0.0406073 -825.656 573.147)"/><polygon style="stroke:none;fill:yellow;stroke-width:1px;" id="e89_polygon" points="33948.1 -6874.1 34023.1 -7054.1 34081.1 -6871.1 33922.1 -6989.1 34124.1 -6986.1" transform="matrix(0.0406073 0.0004404 -0.0004404 0.0406073 -825.656 573.147)"/><polygon style="stroke:none;fill:yellow;stroke-width:1px;" id="e90_polygon" points="34748.1 -8570.1 34823.1 -8750.09 34881.1 -8567.1 34722.1 -8685.09 34924.1 -8682.09" transform="matrix(0.0406073 0.0004404 -0.0004404 0.0406073 -825.656 573.147)"/><polygon style="stroke:none;fill:yellow;stroke-width:1px;" id="e91_polygon" points="33196.1 -8554.1 33271.1 -8734.09 33329.1 -8551.1 33170.1 -8669.1 33372.1 -8666.1" transform="matrix(0.0406073 0.0004404 -0.0004404 0.0406073 -825.656 573.147)"/><polygon style="stroke:none;fill:yellow;stroke-width:1px;" id="e92_polygon" points="25980.1 -10074.1 26055.1 -10254.1 26113.1 -10071.1 25954.1 -10189.1 26156.1 -10186.1" transform="matrix(0.0406073 0.0004404 -0.0004404 0.0406073 -825.656 573.147)"/><polygon style="stroke:none;fill:yellow;stroke-width:1px;" id="e93_polygon" points="26428.1 -4602.09 26503.1 -4782.09 26561.1 -4599.09 26402.1 -4717.09 26604.1 -4714.09" transform="matrix(0.0406073 0.0004404 -0.0004404 0.0406073 -825.656 573.147)"/><polygon style="stroke:none;fill:yellow;stroke-width:1px;" id="e94_polygon" points="26748.1 -4282.09 26823.1 -4462.09 26881.1 -4279.09 26722.1 -4397.09 26924.1 -4394.09" transform="matrix(0.0406073 0.0004404 -0.0004404 0.0406073 -825.656 573.147)"/><polygon style="stroke:none;fill:yellow;stroke-width:1px;" id="e95_polygon" points="27068.1 -3962.09 27143.1 -4142.09 27201.1 -3959.09 27042.1 -4077.09 27244.1 -4074.09" transform="matrix(0.0406073 0.0004404 -0.0004404 0.0406073 -825.656 573.147)"/><polygon style="stroke:none;fill:yellow;stroke-width:1px;" id="e96_polygon" points="27388.1 -3642.09 27463.1 -3822.09 27521.1 -3639.09 27362.1 -3757.09 27564.1 -3754.09" transform="matrix(0.0406073 0.0004404 -0.0004404 0.0406073 -825.656 573.147)"/><polygon style="stroke:none;fill:yellow;stroke-width:1px;" id="e97_polygon" points="31740.1 -10906.1 31815.1 -11086.1 31873.1 -10903.1 31714.1 -11021.1 31916.1 -11018.1" transform="matrix(0.0406073 0.0004404 -0.0004404 0.0406073 -825.656 573.147)"/><polygon style="stroke:none;fill:yellow;stroke-width:1px;" id="e98_polygon" points="44956 -5786.09 45031 -5966.09 45089 -5783.09 44930 -5901.09 45132 -5898.09" transform="matrix(0.0406073 0.0004404 -0.0004404 0.0406073 -825.656 573.147)"/><polygon style="stroke:none;fill:yellow;stroke-width:1px;" id="e99_polygon" points="37052.1 -12026.1 37127.1 -12206.1 37185.1 -12023.1 37026.1 -12141.1 37228.1 -12138.1" transform="matrix(0.0406073 0.0004404 -0.0004404 0.0406073 -825.656 573.147)"/><polygon style="stroke:none;fill:yellow;stroke-width:1px;" id="e100_polygon" points="42364 -8506.1 42439 -8686.09 42497 -8503.1 42338 -8621.1 42540 -8618.1" transform="matrix(0.0406073 0.0004404 -0.0004404 0.0406073 -825.656 573.147)"/><polygon style="stroke:none;fill:yellow;stroke-width:1px;" id="e101_polygon" points="38780 -10458.1 38855 -10638.1 38913 -10455.1 38754 -10573.1 38956 -10570.1" transform="matrix(0.0406073 0.0004404 -0.0004404 0.0406073 -825.656 573.147)"/><polygon style="stroke:none;fill:yellow;stroke-width:1px;" id="e102_polygon" points="29372.1 -5018.09 29447.1 -5198.09 29505.1 -5015.09 29346.1 -5133.09 29548.1 -5130.09" transform="matrix(0.0406073 0.0004404 -0.0004404 0.0406073 -825.656 573.147)"/><polygon style="stroke:none;fill:yellow;stroke-width:1px;" id="e103_polygon" points="44732 -1210.08 44807 -1390.08 44865 -1207.08 44706 -1325.08 44908 -1322.08" transform="matrix(0.0406073 0.0004404 -0.0004404 0.0406073 -825.656 573.147)"/><polygon style="stroke:none;fill:yellow;stroke-width:1px;" id="e104_polygon" points="42268 -5146.09 42343 -5326.09 42401 -5143.09 42242 -5261.09 42444 -5258.09" transform="matrix(0.0406073 0.0004404 -0.0004404 0.0406073 -825.656 573.147)"/><polygon style="stroke:none;fill:yellow;stroke-width:1px;" id="e105_polygon" points="30253.1 -4525.13 30328.1 -4705.13 30386.1 -4522.13 30227.1 -4640.13 30429.1 -4637.13" transform="matrix(0.0406073 0.0004404 -0.0004404 0.0406073 -825.656 573.147)"/><polygon style="stroke:none;fill:yellow;stroke-width:1px;" id="e106_polygon" points="27128.8 -12983.9 27203.8 -13163.9 27261.8 -12980.9 27102.8 -13098.9 27304.8 -13095.9" transform="matrix(0.0406073 0.0004404 -0.0004404 0.0406073 -825.656 573.147)"/><polygon style="stroke:none;fill:yellow;stroke-width:1px;" id="e107_polygon" points="40028 -6714.1 40103 -6894.1 40161 -6711.1 40002 -6829.1 40204 -6826.1" transform="matrix(0.0406073 0.0004404 -0.0004404 0.0406073 -825.656 573.147)"/><polygon style="stroke:none;fill:yellow;stroke-width:1px;" id="e108_polygon" points="38300.1 -12602.1 38375.1 -12782.1 38433.1 -12599.1 38274.1 -12717.1 38476.1 -12714.1" transform="matrix(0.0406073 0.0004404 -0.0004404 0.0406073 -825.656 573.147)"/><polygon style="stroke:none;fill:yellow;stroke-width:1px;" id="e109_polygon" points="36284 -11130.1 36359 -11310.1 36417 -11127.1 36258 -11245.1 36460 -11242.1" transform="matrix(0.0406073 0.0004404 -0.0004404 0.0406073 -825.656 573.147)"/><polygon style="stroke:none;fill:yellow;stroke-width:1px;" id="e110_polygon" points="39228 -12410.1 39303 -12590.1 39361 -12407.1 39202 -12525.1 39404 -12522.1" transform="matrix(0.0406073 0.0004404 -0.0004404 0.0406073 -825.656 573.147)"/><polygon style="stroke:none;fill:yellow;stroke-width:1px;" id="e111_polygon" points="41084 -11962.1 41159 -12142.1 41217 -11959.1 41058 -12077.1 41260 -12074.1" transform="matrix(0.0406073 0.0004404 -0.0004404 0.0406073 -825.656 573.147)"/><polygon style="stroke:none;fill:yellow;stroke-width:1px;" id="e112_polygon" points="40380 -8858.09 40455 -9038.09 40513 -8855.09 40354 -8973.09 40556 -8970.09" transform="matrix(0.0406073 0.0004404 -0.0004404 0.0406073 -825.656 573.147)"/><polygon style="stroke:none;fill:yellow;stroke-width:1px;" id="e113_polygon" points="39004 -9210.09 39079 -9390.09 39137 -9207.09 38978 -9325.09 39180 -9322.09" transform="matrix(0.0406073 0.0004404 -0.0004404 0.0406073 -825.656 573.147)"/><polygon style="stroke:none;fill:yellow;stroke-width:1px;" id="e114_polygon" points="42588 -9242.09 42663 -9422.09 42721 -9239.09 42562 -9357.09 42764 -9354.09" transform="matrix(0.0406073 0.0004404 -0.0004404 0.0406073 -825.656 573.147)"/><polygon style="stroke:none;fill:yellow;stroke-width:1px;" id="e115_polygon" points="41340 -7898.1 41415 -8078.09 41473 -7895.1 41314 -8013.09 41516 -8010.09" transform="matrix(0.0406073 0.0004404 -0.0004404 0.0406073 -825.656 573.147)"/><polygon style="stroke:none;fill:yellow;stroke-width:1px;" id="e116_polygon" points="41308 -6394.1 41383 -6574.1 41441 -6391.1 41282 -6509.1 41484 -6506.1" transform="matrix(0.0406073 0.0004404 -0.0004404 0.0406073 -825.656 573.147)"/><polygon style="stroke:none;fill:yellow;stroke-width:1px;" id="e117_polygon" points="43388 -11162.1 43463 -11342.1 43521 -11159.1 43362 -11277.1 43564 -11274.1" transform="matrix(0.0406073 0.0004404 -0.0004404 0.0406073 -825.656 573.147)"/><polygon style="stroke:none;fill:yellow;stroke-width:1px;" id="e118_polygon" points="42652 -7578.1 42727 -7758.1 42785 -7575.1 42626 -7693.1 42828 -7690.1" transform="matrix(0.0406073 0.0004404 -0.0004404 0.0406073 -825.656 573.147)"/><polygon style="stroke:none;fill:yellow;stroke-width:1px;" id="e119_polygon" points="45180 -7834.1 45255 -8014.09 45313 -7831.1 45154 -7949.1 45356 -7946.1" transform="matrix(0.0406073 0.0004404 -0.0004404 0.0406073 -825.656 573.147)"/><polygon style="stroke:none;fill:yellow;stroke-width:1px;" id="e120_polygon" points="47388 -7738.1 47463 -7918.1 47521 -7735.1 47362 -7853.1 47564 -7850.1" transform="matrix(0.0406073 0.0004404 -0.0004404 0.0406073 -825.656 573.147)"/><polygon style="stroke:none;fill:yellow;stroke-width:1px;" id="e121_polygon" points="48444 1669.92 48519 1489.92 48577 1672.92 48418 1554.92 48620 1557.92" transform="matrix(0.0406073 0.0004404 -0.0004404 0.0406073 -825.656 573.147)"/><polygon style="stroke:none;fill:yellow;stroke-width:1px;" id="e122_polygon" points="47580 -3258.09 47655 -3438.09 47713 -3255.09 47554 -3373.09 47756 -3370.09" transform="matrix(0.0406073 0.0004404 -0.0004404 0.0406073 -825.656 573.147)"/><polygon style="stroke:none;fill:yellow;stroke-width:1px;" id="e123_polygon" points="40572 2693.92 40647 2513.92 40705 2696.92 40546 2578.92 40748 2581.92" transform="matrix(0.0406073 0.0004404 -0.0004404 0.0406073 -825.656 573.147)"/><polygon style="stroke:none;fill:yellow;stroke-width:1px;" id="e124_polygon" points="43548 293.915 43623 113.915 43681 296.915 43522 178.915 43724 181.915" transform="matrix(0.0406073 0.0004404 -0.0004404 0.0406073 -825.656 573.147)"/><polygon style="stroke:none;fill:yellow;stroke-width:1px;" id="e125_polygon" points="43804 -1498.08 43879 -1678.08 43937 -1495.08 43778 -1613.08 43980 -1610.08" transform="matrix(0.0406073 0.0004404 -0.0004404 0.0406073 -825.656 573.147)"/><polygon style="stroke:none;fill:yellow;stroke-width:1px;" id="e126_polygon" points="47580 -1946.08 47655 -2126.08 47713 -1943.08 47554 -2061.08 47756 -2058.08" transform="matrix(0.0406073 0.0004404 -0.0004404 0.0406073 -825.656 573.147)"/><polygon style="stroke:none;fill:yellow;stroke-width:1px;" id="e127_polygon" points="48412 -410.085 48487 -590.085 48545 -407.085 48386 -525.085 48588 -522.085" transform="matrix(0.0406073 0.0004404 -0.0004404 0.0406073 -825.656 573.147)"/><polygon style="stroke:none;fill:yellow;stroke-width:1px;" id="e128_polygon" points="43452 -5722.09 43527 -5902.09 43585 -5719.09 43426 -5837.09 43628 -5834.09" transform="matrix(0.0406073 0.0004404 -0.0004404 0.0406073 -825.656 573.147)"/><polygon style="stroke:none;fill:yellow;stroke-width:1px;" id="e129_polygon" points="33418.1 -7837.1 33681.1 -8585.1 33971.1 -7886.1 33308.1 -8264.1 34130.1 -8349.1" transform="matrix(0.0406073 0.0004404 -0.0004404 0.0406073 -825.656 573.147)"/><polygon style="stroke:none;fill:yellow;stroke-width:1px;" id="e130_polygon" points="43692 1993.93 43883 1541.93 44009 2028.93 43646 1686.94 44120 1729.93" transform="matrix(0.0406073 0.0004404 -0.0004404 0.0406073 -825.656 573.147)"/><polygon style="stroke:none;fill:yellow;stroke-width:1px;" id="e131_polygon" points="28092.1 3525.91 28167.1 3345.91 28225.1 3528.91 28066.1 3410.91 28268.1 3413.91" transform="matrix(0.0406073 0.0004404 -0.0004404 0.0406073 -825.656 573.147)"/><polygon style="stroke:none;fill:yellow;stroke-width:1px;" id="e132_polygon" points="29244.1 645.915 29319.1 465.915 29377.1 648.915 29218.1 530.915 29420.1 533.915" transform="matrix(0.0406073 0.0004404 -0.0004404 0.0406073 -825.656 573.147)"/><polygon style="stroke:none;fill:yellow;stroke-width:1px;" id="e133_polygon" points="29660.1 -1690.08 29735.1 -1870.08 29793.1 -1687.08 29634.1 -1805.08 29836.1 -1802.08" transform="matrix(0.0406073 0.0004404 -0.0004404 0.0406073 -825.656 573.147)"/><polygon style="stroke:none;fill:yellow;stroke-width:1px;" id="e134_polygon" points="33020.1 -2682.08 33095.1 -2862.08 33153.1 -2679.08 32994.1 -2797.08 33196.1 -2794.08" transform="matrix(0.0406073 0.0004404 -0.0004404 0.0406073 -825.656 573.147)"/><polygon style="stroke:none;fill:yellow;stroke-width:1px;" id="e135_polygon" points="31004.1 1733.92 31079.1 1553.92 31137.1 1736.92 30978.1 1618.92 31180.1 1621.92" transform="matrix(0.0406073 0.0004404 -0.0004404 0.0406073 -825.656 573.147)"/><polygon style="stroke:none;fill:yellow;stroke-width:1px;" id="e136_polygon" points="30396.1 2981.91 30471.1 2801.91 30529.1 2984.91 30370.1 2866.91 30572.1 2869.91" transform="matrix(0.0406073 0.0004404 -0.0004404 0.0406073 -825.656 573.147)"/><polygon style="stroke:none;fill:yellow;stroke-width:1px;" id="e137_polygon" points="30588.1 -26.0848 30663.1 -206.085 30721.1 -23.0848 30562.1 -141.085 30764.1 -138.085" transform="matrix(0.0406073 0.0004404 -0.0004404 0.0406073 -825.656 573.147)"/><polygon style="stroke:none;fill:yellow;stroke-width:1px;" id="e138_polygon" points="30012.1 2437.92 30087.1 2257.92 30145.1 2440.92 29986.1 2322.92 30188.1 2325.92" transform="matrix(0.0406073 0.0004404 -0.0004404 0.0406073 -825.656 573.147)"/><polygon style="stroke:none;fill:yellow;stroke-width:1px;" id="e139_polygon" points="29916.1 869.915 29991.1 689.915 30049.1 872.915 29890.1 754.915 30092.1 757.915" transform="matrix(0.0406073 0.0004404 -0.0004404 0.0406073 -825.656 573.147)"/><polygon style="stroke:none;fill:yellow;stroke-width:1px;" id="e140_polygon" points="33436.1 -58.0851 33511.1 -238.085 33569.1 -55.0851 33410.1 -173.085 33612.1 -170.085" transform="matrix(0.0406073 0.0004404 -0.0004404 0.0406073 -825.656 573.147)"/><polygon style="stroke:none;fill:yellow;stroke-width:1px;" id="e141_polygon" points="33852.1 -2650.08 33927.1 -2830.08 33985.1 -2647.08 33826.1 -2765.08 34028.1 -2762.08" transform="matrix(0.0406073 0.0004404 -0.0004404 0.0406073 -825.656 573.147)"/><polygon style="stroke:none;fill:yellow;stroke-width:1px;" id="e142_polygon" points="30844.1 -2490.08 30919.1 -2670.08 30977.1 -2487.08 30818.1 -2605.08 31020.1 -2602.08" transform="matrix(0.0406073 0.0004404 -0.0004404 0.0406073 -825.656 573.147)"/><polygon style="stroke:none;fill:yellow;stroke-width:1px;" id="e143_polygon" points="32156.1 -1722.08 32231.1 -1902.08 32289.1 -1719.08 32130.1 -1837.08 32332.1 -1834.08" transform="matrix(0.0406073 0.0004404 -0.0004404 0.0406073 -825.656 573.147)"/><polygon style="stroke:none;fill:yellow;stroke-width:1px;" id="e144_polygon" points="29084.1 -2490.08 29159.1 -2670.08 29217.1 -2487.08 29058.1 -2605.08 29260.1 -2602.08" transform="matrix(0.0406073 0.0004404 -0.0004404 0.0406073 -825.656 573.147)"/><polygon style="stroke:none;fill:yellow;stroke-width:1px;" id="e145_polygon" points="32156.1 -1530.08 32231.1 -1710.08 32289.1 -1527.08 32130.1 -1645.08 32332.1 -1642.08" transform="matrix(0.0406073 0.0004404 -0.0004404 0.0406073 -825.656 573.147)"/><polygon style="stroke:none;fill:yellow;stroke-width:1px;" id="e146_polygon" points="45564 645.915 45639 465.915 45697 648.915 45538 530.915 45740 533.915" transform="matrix(0.0406073 0.0004404 -0.0004404 0.0406073 -825.656 573.147)"/><polygon style="stroke:none;fill:yellow;stroke-width:1px;" id="e147_polygon" points="41596 -378.085 41671 -558.085 41729 -375.085 41570 -493.085 41772 -490.085" transform="matrix(0.0406073 0.0004404 -0.0004404 0.0406073 -825.656 573.147)"/><polygon style="stroke:none;fill:yellow;stroke-width:1px;" id="e148_polygon" points="41340 1125.92 41415 945.915 41473 1128.92 41314 1010.92 41516 1013.92" transform="matrix(0.0406073 0.0004404 -0.0004404 0.0406073 -825.656 573.147)"/><polygon style="stroke:none;fill:yellow;stroke-width:1px;" id="e149_polygon" points="41436 -858.085 41511 -1038.08 41569 -855.085 41410 -973.085 41612 -970.085" transform="matrix(0.0406073 0.0004404 -0.0004404 0.0406073 -825.656 573.147)"/><polygon style="stroke:none;fill:yellow;stroke-width:1px;" id="e150_polygon" points="46844 1925.92 46919 1745.92 46977 1928.92 46818 1810.92 47020 1813.92" transform="matrix(0.0406073 0.0004404 -0.0004404 0.0406073 -825.656 573.147)"/><polygon style="stroke:none;fill:yellow;stroke-width:1px;" id="e151_polygon" points="40508 -2458.08 40583 -2638.08 40641 -2455.08 40482 -2573.08 40684 -2570.08" transform="matrix(0.0406073 0.0004404 -0.0004404 0.0406073 -825.656 573.147)"/><polygon style="stroke:none;fill:yellow;stroke-width:1px;" id="e152_polygon" points="46588 3173.91 46663 2993.91 46721 3176.91 46562 3058.92 46764 3061.92" transform="matrix(0.0406073 0.0004404 -0.0004404 0.0406073 -825.656 573.147)"/><polygon style="stroke:none;fill:yellow;stroke-width:1px;" id="e153_polygon" points="42524 901.915 42599 721.915 42657 904.915 42498 786.915 42700 789.915" transform="matrix(0.0406073 0.0004404 -0.0004404 0.0406073 -825.656 573.147)"/><polygon style="stroke:none;fill:yellow;stroke-width:1px;" id="e154_polygon" points="47452 133.916 47527 -46.0851 47585 136.915 47426 18.9153 47628 21.9153" transform="matrix(0.0406073 0.0004404 -0.0004404 0.0406073 -825.656 573.147)"/><polygon style="stroke:none;fill:yellow;stroke-width:1px;" id="e155_polygon" points="46940 -314.085 47015 -494.085 47073 -311.085 46914 -429.085 47116 -426.085" transform="matrix(0.0406073 0.0004404 -0.0004404 0.0406073 -825.656 573.147)"/><polygon style="stroke:none;fill:yellow;stroke-width:1px;" id="e156_polygon" points="39868 -58.0851 39943 -238.085 40001 -55.0851 39842 -173.085 40044 -170.085" transform="matrix(0.0406073 0.0004404 -0.0004404 0.0406073 -825.656 573.147)"/><polygon style="stroke:none;fill:yellow;stroke-width:1px;" id="e157_polygon" points="43612 -2106.08 43687 -2286.08 43745 -2103.08 43586 -2221.08 43788 -2218.08" transform="matrix(0.0406073 0.0004404 -0.0004404 0.0406073 -825.656 573.147)"/><polygon style="stroke:none;fill:yellow;stroke-width:1px;" id="e158_polygon" points="42780 2309.92 42855 2129.92 42913 2312.92 42754 2194.92 42956 2197.92" transform="matrix(0.0406073 0.0004404 -0.0004404 0.0406073 -825.656 573.147)"/><polygon style="stroke:none;fill:yellow;stroke-width:1px;" id="e159_polygon" points="45308 3045.92 45383 2865.91 45441 3048.92 45282 2930.91 45484 2933.91" transform="matrix(0.0406073 0.0004404 -0.0004404 0.0406073 -825.656 573.147)"/><polygon style="stroke:none;fill:yellow;stroke-width:1px;" id="e160_polygon" points="44604 -2554.08 44679 -2734.08 44737 -2551.08 44578 -2669.08 44780 -2666.08" transform="matrix(0.0406073 0.0004404 -0.0004404 0.0406073 -825.656 573.147)"/><polygon style="stroke:none;fill:yellow;stroke-width:1px;" id="e161_polygon" points="44732 -442.085 44807 -622.085 44865 -439.085 44706 -557.085 44908 -554.085" transform="matrix(0.0406073 0.0004404 -0.0004404 0.0406073 -825.656 573.147)"/><polygon style="stroke:none;fill:yellow;stroke-width:1px;" id="e162_polygon" points="45244 -1914.08 45319 -2094.08 45377 -1911.08 45218 -2029.08 45420 -2026.08" transform="matrix(0.0406073 0.0004404 -0.0004404 0.0406073 -825.656 573.147)"/><polygon style="stroke:none;fill:yellow;stroke-width:1px;" id="e163_polygon" points="44828 -122.085 44903 -302.085 44961 -119.085 44802 -237.085 45004 -234.085" transform="matrix(0.0406073 0.0004404 -0.0004404 0.0406073 -825.656 573.147)"/><polygon style="stroke:none;fill:yellow;stroke-width:1px;" id="e164_polygon" points="31433.3 3799.14 31508.3 3619.14 31566.3 3802.14 31407.3 3684.14 31609.3 3687.14" transform="matrix(0.0406073 0.0004404 -0.0004404 0.0406073 -825.656 573.147)"/><polygon style="stroke:none;fill:yellow;stroke-width:1px;" id="e165_polygon" points="29071.2 3071.45 29146.2 2891.45 29204.2 3074.45 29045.2 2956.45 29247.2 2959.45" transform="matrix(0.0406073 0.0004404 -0.0004404 0.0406073 -825.656 573.147)"/><polygon style="stroke:none;fill:yellow;stroke-width:1px;" id="e166_polygon" points="28680.8 -8857.87 28755.8 -9037.87 28813.8 -8854.87 28654.8 -8972.87 28856.8 -8969.87" transform="matrix(0.0406073 0.0004404 -0.0004404 0.0406073 -825.656 573.147)"/><polygon style="stroke:none;fill:yellow;stroke-width:1px;" id="e167_polygon" points="29755.4 3936.05 29830.4 3756.05 29888.4 3939.05 29729.4 3821.05 29931.4 3824.05" transform="matrix(0.0406073 0.0004404 -0.0004404 0.0406073 -825.656 573.147)"/><polygon style="stroke:none;fill:yellow;stroke-width:1px;" id="e168_polygon" points="30407.5 4111.47 30482.5 3931.47 30540.5 4114.47 30381.5 3996.47 30583.5 3999.47" transform="matrix(0.0406073 0.0004404 -0.0004404 0.0406073 -825.656 573.147)"/><polygon style="stroke:none;fill:yellow;stroke-width:1px;" id="e169_polygon" points="27465.9 4449 27540.9 4268.99 27598.9 4452 27439.9 4333.99 27641.9 4336.99" transform="matrix(0.0406073 0.0004404 -0.0004404 0.0406073 -825.656 573.147)"/><polygon style="stroke:none;fill:yellow;stroke-width:1px;" id="e170_polygon" points="29855.5 5150.28 30046.5 4698.28 30172.5 5185.28 29809.5 4843.29 30283.5 4886.28" transform="matrix(0.0406073 0.0004404 -0.0004404 0.0406073 -825.656 573.147)"/><polygon style="stroke:none;fill:yellow;stroke-width:1px;" id="e171_polygon" points="26574.1 2601.6 26649.1 2421.6 26707.1 2604.6 26548.1 2486.6 26750.1 2489.6" transform="matrix(0.0406073 0.0004404 -0.0004404 0.0406073 -825.656 573.147)"/><polygon style="stroke:none;fill:yellow;stroke-width:1px;" id="e172_polygon" points="24975.6 1890.26 25050.6 1710.26 25108.6 1893.26 24949.6 1775.26 25151.6 1778.26" transform="matrix(0.0406073 0.0004404 -0.0004404 0.0406073 -825.656 573.147)"/><polygon style="stroke:none;fill:yellow;stroke-width:1px;" id="e173_polygon" points="48700.7 4239.94 48891.7 3787.94 49017.7 4274.94 48654.7 3932.95 49128.7 3975.94" transform="matrix(0.0406073 0.0004404 -0.0004404 0.0406073 -825.656 573.147)"/><polygon style="stroke:none;fill:yellow;stroke-width:1px;" id="e174_polygon" points="45775.5 4547.27 45850.5 4367.27 45908.5 4550.27 45749.5 4432.28 45951.5 4435.28" transform="matrix(0.0406073 0.0004404 -0.0004404 0.0406073 -825.656 573.147)"/><polygon style="stroke:none;fill:yellow;stroke-width:1px;" id="e175_polygon" points="44732.9 2869.48 44807.9 2689.48 44865.9 2872.48 44706.9 2754.49 44908.9 2757.49" transform="matrix(0.0406073 0.0004404 -0.0004404 0.0406073 -825.656 573.147)"/><polygon style="stroke:none;fill:yellow;stroke-width:1px;" id="e176_polygon" points="44029.1 646.244 44104.1 466.244 44162.1 649.244 44003.1 531.254 44205.1 534.254" transform="matrix(0.0406073 0.0004404 -0.0004404 0.0406073 -825.656 573.147)"/><polygon style="stroke:none;fill:yellow;stroke-width:1px;" id="e177_polygon" points="43945.6 3390.76 44020.6 3210.76 44078.6 3393.76 43919.6 3275.77 44121.6 3278.77" transform="matrix(0.0406073 0.0004404 -0.0004404 0.0406073 -825.656 573.147)"/><polygon style="stroke:none;fill:yellow;stroke-width:1px;" id="e178_polygon" points="30756.3 -1110.42 30831.3 -1290.42 30889.3 -1107.42 30730.3 -1225.41 30932.3 -1222.41" transform="matrix(0.0406073 0.0004404 -0.0004404 0.0406073 -825.656 573.147)"/><polygon style="stroke:none;fill:yellow;stroke-width:1px;" id="e179_polygon" points="43907.2 4839.71 43982.2 4659.71 44040.2 4842.71 43881.2 4724.72 44083.2 4727.72" transform="matrix(0.0406073 0.0004404 -0.0004404 0.0406073 -825.656 573.147)"/><polygon style="stroke:none;fill:yellow;stroke-width:1px;" id="e180_polygon" points="43917.2 4849.71 43992.2 4669.71 44050.2 4852.71 43891.2 4734.72 44093.2 4737.72" transform="matrix(0.0406073 0.0004404 -0.0004404 0.0406073 -825.656 573.147)"/><polygon style="stroke:none;fill:yellow;stroke-width:1px;" id="e181_polygon" points="43927.2 4859.71 44002.2 4679.71 44060.2 4862.71 43901.2 4744.72 44103.2 4747.72" transform="matrix(0.0406073 0.0004404 -0.0004404 0.0406073 -825.656 573.147)"/><polygon style="stroke:none;fill:yellow;stroke-width:1px;" id="e182_polygon" points="46726.7 -11764.8 46901.7 -12104.8 46979.7 -11745.8 46696.7 -11991.8 47074.7 -11980.8" transform="matrix(0.0406073 0.0004404 -0.0004404 0.0406073 -825.656 573.147)"/><polygon style="stroke:none;fill:yellow;stroke-width:1px;" id="e183_polygon" points="44900.3 -8834.4 44975.3 -9014.4 45033.3 -8831.4 44874.3 -8949.4 45076.3 -8946.4" transform="matrix(0.0406073 0.0004404 -0.0004404 0.0406073 -825.656 573.147)"/><polygon style="stroke:none;fill:yellow;stroke-width:1px;" id="e184_polygon" points="46585.6 -11034.3 46660.6 -11214.3 46718.6 -11031.3 46559.6 -11149.3 46761.6 -11146.3" transform="matrix(0.0406073 0.0004404 -0.0004404 0.0406073 -825.656 573.147)"/><polygon style="stroke:none;fill:yellow;stroke-width:1px;" id="e185_polygon" points="46755.4 -9917.86 46830.4 -10097.9 46888.4 -9914.86 46729.4 -10032.9 46931.4 -10029.9" transform="matrix(0.0406073 0.0004404 -0.0004404 0.0406073 -825.656 573.147)"/><polygon style="stroke:none;fill:yellow;stroke-width:1px;" id="e186_polygon" points="46579.9 -8846.93 46654.9 -9026.97 46712.9 -8843.93 46553.9 -8961.97 46755.9 -8958.97" transform="matrix(0.0406073 0.0004404 -0.0004404 0.0406073 -825.656 573.147)"/><polygon style="stroke:none;fill:yellow;stroke-width:1px;" id="e187_polygon" points="45875.8 -8829.19 45950.8 -9009.23 46008.8 -8826.19 45849.8 -8944.23 46051.8 -8941.23" transform="matrix(0.0406073 0.0004404 -0.0004404 0.0406073 -825.656 573.147)"/><polygon style="stroke:none;fill:yellow;stroke-width:1px;" id="e188_polygon" points="45994.2 -7909.2 46069.2 -8089.24 46127.2 -7906.2 45968.2 -8024.24 46170.2 -8021.24" transform="matrix(0.0406073 0.0004404 -0.0004404 0.0406073 -825.656 573.147)"/><polygon style="stroke:none;fill:yellow;stroke-width:1px;" id="e189_polygon" points="44583.6 -11725.5 44658.6 -11905.5 44716.6 -11722.5 44557.6 -11840.5 44759.6 -11837.5" transform="matrix(0.0406073 0.0004404 -0.0004404 0.0406073 -825.656 573.147)"/><polygon style="stroke:none;fill:yellow;stroke-width:1px;" id="e190_polygon" points="25141.6 -12366.6 25216.6 -12546.6 25274.6 -12363.6 25115.6 -12481.6 25317.6 -12478.6" transform="matrix(0.0406073 0.0004404 -0.0004404 0.0406073 -825.656 573.147)"/><polygon style="stroke:none;fill:yellow;stroke-width:1px;" id="e191_polygon" points="25256 -11816 25331 -11996 25389 -11813 25230 -11931 25432 -11928" transform="matrix(0.0406073 0.0004404 -0.0004404 0.0406073 -825.656 573.147)"/><polygon style="stroke:none;fill:yellow;stroke-width:1px;" id="e192_polygon" points="24303.2 -9751.59 24378.2 -9931.59 24436.2 -9748.59 24277.2 -9866.59 24479.2 -9863.59" transform="matrix(0.0406073 0.0004404 -0.0004404 0.0406073 -825.656 573.147)"/><polygon style="stroke:none;fill:yellow;stroke-width:1px;" id="e193_polygon" points="22740.6 -11694.6 22815.6 -11874.6 22873.6 -11691.6 22714.6 -11809.6 22916.6 -11806.6" transform="matrix(0.0406073 0.0004404 -0.0004404 0.0406073 -825.656 573.147)"/><polygon style="stroke:none;fill:yellow;stroke-width:1px;" id="e194_polygon" points="22565 -8358.06 22640 -8538.06 22698 -8355.06 22539 -8473.06 22741 -8470.06" transform="matrix(0.0406073 0.0004404 -0.0004404 0.0406073 -825.656 573.147)"/><polygon style="stroke:none;fill:yellow;stroke-width:1px;" id="e195_polygon" points="22781.1 -9778.61 22856.1 -9958.61 22914.1 -9775.61 22755.1 -9893.61 22957.1 -9890.61" transform="matrix(0.0406073 0.0004404 -0.0004404 0.0406073 -825.656 573.147)"/><polygon style="stroke:none;fill:yellow;stroke-width:1px;" id="e196_polygon" points="24474.6 -11215.2 24549.6 -11395.2 24607.6 -11212.2 24448.6 -11330.2 24650.6 -11327.2" transform="matrix(0.0406073 0.0004404 -0.0004404 0.0406073 -825.656 573.147)"/><polygon style="stroke:none;fill:yellow;stroke-width:1px;" id="e197_polygon" points="22886.9 -6385.78 22961.9 -6565.78 23019.9 -6382.78 22860.9 -6500.78 23062.9 -6497.78" transform="matrix(0.0406073 0.0004404 -0.0004404 0.0406073 -825.656 573.147)"/><polygon style="stroke:none;fill:yellow;stroke-width:1px;" id="e198_polygon" points="24041.4 -7570.25 24116.4 -7750.25 24174.4 -7567.25 24015.4 -7685.25 24217.4 -7682.25" transform="matrix(0.0406073 0.0004404 -0.0004404 0.0406073 -825.656 573.147)"/><polygon style="stroke:none;fill:yellow;stroke-width:1px;" id="e199_polygon" points="36027.3 -7459.64 36102.3 -7639.65 36160.3 -7456.64 36001.3 -7574.64 36203.3 -7571.64" transform="matrix(0.0406073 0.0004404 -0.0004404 0.0406073 -825.656 573.147)"/><polygon style="stroke:none;fill:yellow;stroke-width:1px;" id="e200_polygon" points="37552.1 -6284.02 37627.1 -6464.03 37685.1 -6281.02 37526.1 -6399.02 37728.1 -6396.02" transform="matrix(0.0406073 0.0004404 -0.0004404 0.0406073 -825.656 573.147)"/><polygon style="stroke:none;fill:yellow;stroke-width:1px;" id="e201_polygon" points="37407.7 -6888 37482.7 -7068.01 37540.7 -6885 37381.7 -7003 37583.7 -7000" transform="matrix(0.0406073 0.0004404 -0.0004404 0.0406073 -825.656 573.147)"/><polygon style="stroke:none;fill:yellow;stroke-width:1px;" id="e202_polygon" points="38959.6 -5491.04 39034.6 -5671.05 39092.6 -5488.04 38933.6 -5606.04 39135.6 -5603.04" transform="matrix(0.0406073 0.0004404 -0.0004404 0.0406073 -825.656 573.147)"/><polygon style="stroke:none;fill:yellow;stroke-width:1px;" id="e203_polygon" points="40286.9 -4362.52 40361.9 -4542.53 40419.9 -4359.52 40260.9 -4477.52 40462.9 -4474.52" transform="matrix(0.0406073 0.0004404 -0.0004404 0.0406073 -825.656 573.147)"/><polygon style="stroke:none;fill:yellow;stroke-width:1px;" id="e204_polygon" points="39478.7 -2595.19 39553.7 -2775.2 39611.7 -2592.19 39452.7 -2710.19 39654.7 -2707.19" transform="matrix(0.0406073 0.0004404 -0.0004404 0.0406073 -825.656 573.147)"/><polygon style="stroke:none;fill:yellow;stroke-width:1px;" id="e205_polygon" points="39430.4 -3421.84 39505.4 -3601.85 39563.4 -3418.84 39404.4 -3536.84 39606.4 -3533.84" transform="matrix(0.0406073 0.0004404 -0.0004404 0.0406073 -825.656 573.147)"/><polygon style="stroke:none;fill:yellow;stroke-width:1px;" id="e206_polygon" points="35559.9 -6989.79 35634.9 -7169.8 35692.9 -6986.79 35533.9 -7104.79 35735.9 -7101.79" transform="matrix(0.0406073 0.0004404 -0.0004404 0.0406073 -825.656 573.147)"/><polygon style="stroke:none;fill:yellow;stroke-width:1px;" id="e207_polygon" points="34049.1 -4155.92 34124.1 -4335.93 34182.1 -4152.92 34023.1 -4270.92 34225.1 -4267.92" transform="matrix(0.0406073 0.0004404 -0.0004404 0.0406073 -825.656 573.147)"/><polygon style="stroke:none;fill:yellow;stroke-width:1px;" id="e208_polygon" points="34270 -5133.25 34345 -5313.26 34403 -5130.25 34244 -5248.25 34446 -5245.25" transform="matrix(0.0406073 0.0004404 -0.0004404 0.0406073 -825.656 573.147)"/><polygon style="stroke:none;fill:yellow;stroke-width:1px;" id="e209_polygon" points="33977.6 -5760.25 34052.6 -5940.26 34110.6 -5757.25 33951.6 -5875.25 34153.6 -5872.25" transform="matrix(0.0406073 0.0004404 -0.0004404 0.0406073 -825.656 573.147)"/><polygon style="stroke:none;fill:yellow;stroke-width:1px;" id="e210_polygon" points="31392.3 -398.504 31467.3 -578.504 31525.3 -395.504 31366.3 -513.504 31568.3 -510.504" transform="matrix(0.0406073 0.0004404 -0.0004404 0.0406073 -825.656 573.147)"/><polygon style="stroke:none;fill:yellow;stroke-width:1px;" id="e211_polygon" points="31469.5 -3270.49 31544.5 -3450.49 31602.5 -3267.49 31443.5 -3385.49 31645.5 -3382.49" transform="matrix(0.0406073 0.0004404 -0.0004404 0.0406073 -825.656 573.147)"/><polygon style="stroke:none;fill:yellow;stroke-width:1px;" id="e212_polygon" points="31276.3 706.518 31351.3 526.518 31409.3 709.518 31250.3 591.518 31452.3 594.518" transform="matrix(0.0406073 0.0004404 -0.0004404 0.0406073 -825.656 573.147)"/><polygon style="stroke:none;fill:yellow;stroke-width:1px;" id="e213_polygon" points="30509.2 -12694.9 30584.2 -12874.9 30642.2 -12691.9 30483.2 -12809.9 30685.2 -12806.9" transform="matrix(0.0406073 0.0004404 -0.0004404 0.0406073 -825.656 573.147)"/><polygon style="stroke:none;fill:yellow;stroke-width:1px;" id="e214_polygon" points="27788.5 -11069.1 27863.5 -11249.1 27921.5 -11066.1 27762.5 -11184.1 27964.5 -11181.1" transform="matrix(0.0406073 0.0004404 -0.0004404 0.0406073 -825.656 573.147)"/><polygon style="stroke:none;fill:yellow;stroke-width:1px;" id="e215_polygon" points="29159 -9142.91 29234 -9322.91 29292 -9139.91 29133 -9257.91 29335 -9254.91" transform="matrix(0.0406073 0.0004404 -0.0004404 0.0406073 -825.656 573.147)"/><polygon style="stroke:none;fill:yellow;stroke-width:1px;" id="e216_polygon" points="30233.1 -11843.2 30308.1 -12023.2 30366.1 -11840.2 30207.1 -11958.2 30409.1 -11955.2" transform="matrix(0.0406073 0.0004404 -0.0004404 0.0406073 -825.656 573.147)"/><polygon style="stroke:none;fill:yellow;stroke-width:1px;" id="e217_polygon" points="29919.7 -9983.89 29994.7 -10163.9 30052.7 -9980.89 29893.7 -10098.9 30095.7 -10095.9" transform="matrix(0.0406073 0.0004404 -0.0004404 0.0406073 -825.656 573.147)"/><polygon style="stroke:none;fill:yellow;stroke-width:1px;" id="e218_polygon" points="28602 -10688.2 28677 -10868.2 28735 -10685.2 28576 -10803.2 28778 -10800.2" transform="matrix(0.0406073 0.0004404 -0.0004404 0.0406073 -825.656 573.147)"/><polygon style="stroke:none;fill:yellow;stroke-width:1px;" id="e219_polygon" points="28868.2 -10670.9 28943.2 -10850.9 29001.2 -10667.9 28842.2 -10785.9 29044.2 -10782.9" transform="matrix(0.0406073 0.0004404 -0.0004404 0.0406073 -825.656 573.147)"/><polygon style="stroke:none;fill:yellow;stroke-width:1px;" id="e220_polygon" points="31745.7 -12215.8 31820.7 -12395.8 31878.7 -12212.8 31719.7 -12330.8 31921.7 -12327.8" transform="matrix(0.0406073 0.0004404 -0.0004404 0.0406073 -825.656 573.147)"/><polygon style="stroke:none;fill:yellow;stroke-width:1px;" id="e221_polygon" points="32255.5 -12447.4 32330.5 -12627.4 32388.5 -12444.4 32229.5 -12562.4 32431.5 -12559.4" transform="matrix(0.0406073 0.0004404 -0.0004404 0.0406073 -825.656 573.147)"/><polygon style="stroke:none;fill:yellow;stroke-width:1px;" id="e222_polygon" points="33039.3 -10120.8 33114.3 -10300.8 33172.3 -10117.8 33013.3 -10235.8 33215.3 -10232.8" transform="matrix(0.0406073 0.0004404 -0.0004404 0.0406073 -825.656 573.147)"/><polygon style="stroke:none;fill:yellow;stroke-width:1px;" id="e223_polygon" points="31187.9 -10080.5 31262.9 -10260.5 31320.9 -10077.5 31161.9 -10195.5 31363.9 -10192.5" transform="matrix(0.0406073 0.0004404 -0.0004404 0.0406073 -825.656 573.147)"/><polygon style="stroke:none;fill:yellow;stroke-width:1px;" id="e224_polygon" points="34380.8 -11417.8 34455.8 -11597.8 34513.8 -11414.8 34354.8 -11532.8 34556.8 -11529.8" transform="matrix(0.0406073 0.0004404 -0.0004404 0.0406073 -825.656 573.147)"/><polygon style="stroke:none;fill:yellow;stroke-width:1px;" id="e225_polygon" points="34738.6 -12041.7 34813.6 -12221.7 34871.6 -12038.7 34712.6 -12156.7 34914.6 -12153.7" transform="matrix(0.0406073 0.0004404 -0.0004404 0.0406073 -825.656 573.147)"/><polygon style="stroke:none;fill:yellow;stroke-width:1px;" id="e226_polygon" points="44486.8 -5133.39 44561.8 -5313.39 44619.8 -5130.39 44460.8 -5248.39 44662.8 -5245.39" transform="matrix(0.0406073 0.0004404 -0.0004404 0.0406073 -825.656 573.147)"/><polygon style="stroke:none;fill:yellow;stroke-width:1px;" id="e227_polygon" points="44952.2 -4921.21 45027.2 -5101.21 45085.2 -4918.21 44926.2 -5036.21 45128.2 -5033.21" transform="matrix(0.0406073 0.0004404 -0.0004404 0.0406073 -825.656 573.147)"/><polygon style="stroke:none;fill:yellow;stroke-width:1px;" id="e228_polygon" points="46030.4 -2696.34 46105.4 -2876.34 46163.4 -2693.34 46004.4 -2811.34 46206.4 -2808.34" transform="matrix(0.0406073 0.0004404 -0.0004404 0.0406073 -825.656 573.147)"/><polygon style="stroke:none;fill:yellow;stroke-width:1px;" id="e229_polygon" points="28458.6 -851.439 28533.6 -1031.44 28591.6 -848.439 28432.6 -966.439 28634.6 -963.439" transform="matrix(0.0406073 0.0004404 -0.0004404 0.0406073 -825.656 573.147)"/><polygon style="stroke:none;fill:yellow;stroke-width:1px;" id="e230_polygon" points="25718.7 -998.515 25793.7 -1178.52 25851.7 -995.515 25692.7 -1113.52 25894.7 -1110.52" transform="matrix(0.0406073 0.0004404 -0.0004404 0.0406073 -825.656 573.147)"/><polygon style="stroke:none;fill:yellow;stroke-width:1px;" id="e231_polygon" points="45544.4 1552.88 45619.4 1372.88 45677.4 1555.88 45518.4 1437.88 45720.4 1440.88" transform="matrix(0.0406073 0.0004404 -0.0004404 0.0406073 -825.656 573.147)"/><polygon style="stroke:none;fill:yellow;stroke-width:1px;" id="e232_polygon" points="25689 907.589 25764 727.589 25822 910.589 25663 792.589 25865 795.589" transform="matrix(0.0406073 0.0004404 -0.0004404 0.0406073 -825.656 573.147)"/><polygon style="stroke:none;fill:yellow;stroke-width:1px;" id="e233_polygon" points="26001.8 678.152 26076.8 498.152 26134.8 681.152 25975.8 563.152 26177.8 566.152" transform="matrix(0.0406073 0.0004404 -0.0004404 0.0406073 -825.656 573.147)"/><polygon style="stroke:none;fill:yellow;stroke-width:1px;" id="e234_polygon" points="25206 2677.09 25281 2497.09 25339 2680.09 25180 2562.09 25382 2565.09" transform="matrix(0.0406073 0.0004404 -0.0004404 0.0406073 -825.656 573.147)"/><polygon style="stroke:none;fill:yellow;stroke-width:1px;" id="e235_polygon" points="26960.3 3663.33 27035.3 3483.33 27093.3 3666.33 26934.3 3548.33 27136.3 3551.33" transform="matrix(0.0406073 0.0004404 -0.0004404 0.0406073 -825.656 573.147)"/><polygon style="stroke:none;fill:yellow;stroke-width:1px;" id="e236_polygon" points="26795.1 4768.89 26870.1 4588.89 26928.1 4771.89 26769.1 4653.89 26971.1 4656.89" transform="matrix(0.0406073 0.0004404 -0.0004404 0.0406073 -825.656 573.147)"/><polygon style="stroke:none;fill:yellow;stroke-width:1px;" id="e237_polygon" points="24631.2 3236.5 24706.2 3056.5 24764.2 3239.5 24605.2 3121.5 24807.2 3124.5" transform="matrix(0.0406073 0.0004404 -0.0004404 0.0406073 -825.656 573.147)"/><polygon style="stroke:none;fill:yellow;stroke-width:1px;" id="e238_polygon" points="26621.1 3235.14 26696.1 3055.14 26754.1 3238.14 26595.1 3120.14 26797.1 3123.14" transform="matrix(0.0406073 0.0004404 -0.0004404 0.0406073 -825.656 573.147)"/><polygon style="stroke:none;fill:yellow;stroke-width:1px;" id="e239_polygon" points="25328 4796.2 25403 4616.2 25461 4799.2 25302 4681.2 25504 4684.2" transform="matrix(0.0406073 0.0004404 -0.0004404 0.0406073 -825.656 573.147)"/><polygon style="stroke:none;fill:yellow;stroke-width:1px;" id="e240_polygon" points="36061.4 -13011.5 36136.4 -13191.5 36194.4 -13008.5 36035.4 -13126.5 36237.4 -13123.5" transform="matrix(0.0406073 0.0004404 -0.0004404 0.0406073 -825.656 573.147)"/><polygon style="stroke:none;fill:yellow;stroke-width:1px;" id="e241_polygon" points="36585.3 -13302.6 36660.3 -13482.6 36718.3 -13299.6 36559.3 -13417.6 36761.3 -13414.6" transform="matrix(0.0406073 0.0004404 -0.0004404 0.0406073 -825.656 573.147)"/><polygon style="stroke:none;fill:yellow;stroke-width:1px;" id="e242_polygon" points="40046.3 -12985.3 40121.3 -13165.3 40179.3 -12982.3 40020.3 -13100.3 40222.3 -13097.3" transform="matrix(0.0406073 0.0004404 -0.0004404 0.0406073 -825.656 573.147)"/><polygon style="stroke:none;fill:yellow;stroke-width:1px;" id="e243_polygon" points="43302.6 -13379.9 43377.6 -13559.9 43435.6 -13376.9 43276.6 -13494.9 43478.6 -13491.9" transform="matrix(0.0406073 0.0004404 -0.0004404 0.0406073 -825.656 573.147)"/><polygon style="stroke:none;fill:yellow;stroke-width:1px;" id="e244_polygon" points="45222 -12159.3 45297 -12339.3 45355 -12156.3 45196 -12274.3 45398 -12271.3" transform="matrix(0.0406073 0.0004404 -0.0004404 0.0406073 -825.656 573.147)"/><polygon style="stroke:none;fill:yellow;stroke-width:1px;" id="e245_polygon" points="45903.5 -13806.5 45978.5 -13986.5 46036.5 -13803.5 45877.5 -13921.5 46079.5 -13918.5" transform="matrix(0.0406073 0.0004404 -0.0004404 0.0406073 -825.656 573.147)"/><polygon style="stroke:none;fill:yellow;stroke-width:1px;" id="e246_polygon" points="47046.4 -12883.1 47121.4 -13063.1 47179.4 -12880.1 47020.4 -12998.1 47222.4 -12995.1" transform="matrix(0.0406073 0.0004404 -0.0004404 0.0406073 -825.656 573.147)"/><polygon style="stroke:none;fill:yellow;stroke-width:1px;" id="e247_polygon" points="44854.5 -13809.6 44929.5 -13989.6 44987.5 -13806.6 44828.5 -13924.6 45030.5 -13921.6" transform="matrix(0.0406073 0.0004404 -0.0004404 0.0406073 -825.656 573.147)"/><polygon style="stroke:none;fill:yellow;stroke-width:1px;" id="e248_polygon" points="43657.4 -13835.8 43732.4 -14015.8 43790.4 -13832.8 43631.4 -13950.8 43833.4 -13947.8" transform="matrix(0.0406073 0.0004404 -0.0004404 0.0406073 -825.656 573.147)"/><polygon style="stroke:none;fill:yellow;stroke-width:1px;" id="e249_polygon" points="43805.7 -12423.6 43880.7 -12603.6 43938.7 -12420.6 43779.7 -12538.6 43981.7 -12535.6" transform="matrix(0.0406073 0.0004404 -0.0004404 0.0406073 -825.656 573.147)"/><polygon style="stroke:none;fill:yellow;stroke-width:1px;" id="e250_polygon" points="41807.3 -13672.4 41882.3 -13852.4 41940.3 -13669.4 41781.3 -13787.4 41983.3 -13784.4" transform="matrix(0.0406073 0.0004404 -0.0004404 0.0406073 -825.656 573.147)"/><polygon style="stroke:none;fill:yellow;stroke-width:1px;" id="e251_polygon" points="39434.5 -13486.4 39609.5 -13826.4 39687.5 -13467.4 39404.5 -13713.4 39782.5 -13702.4" transform="matrix(0.0406073 0.0004404 -0.0004404 0.0406073 -825.656 573.147)"/><polygon style="stroke:none;fill:yellow;stroke-width:1px;" id="e252_polygon" points="39452 -12787 39627 -13127 39705 -12768 39422 -13014 39800 -13003" transform="matrix(0.0406073 0.0004404 -0.0004404 0.0406073 -825.656 573.147)"/><polygon style="stroke:none;fill:yellow;stroke-width:1px;" id="e253_polygon" points="32483.6 916.584 32658.6 576.589 32736.6 935.584 32453.6 689.589 32831.6 700.589" transform="matrix(0.0406073 0.0004404 -0.0004404 0.0406073 -825.656 573.147)"/><polygon style="stroke:none;fill:yellow;stroke-width:1px;" id="e254_polygon" points="32656.8 -162.656 32731.8 -342.656 32789.8 -159.656 32630.8 -277.656 32832.8 -274.656" transform="matrix(0.0406073 0.0004404 -0.0004404 0.0406073 -825.656 573.147)"/><polygon style="stroke:none;fill:yellow;stroke-width:1px;" id="e255_polygon" points="33211.2 87.7011 33286.2 -92.2988 33344.2 90.7011 33185.2 -27.2989 33387.2 -24.2989" transform="matrix(0.0406073 0.0004404 -0.0004404 0.0406073 -825.656 573.147)"/><polygon style="stroke:none;fill:yellow;stroke-width:1px;" id="e256_polygon" points="32686.8 -1497.2 32761.8 -1677.2 32819.8 -1494.2 32660.8 -1612.2 32862.8 -1609.2" transform="matrix(0.0406073 0.0004404 -0.0004404 0.0406073 -825.656 573.147)"/><polygon style="stroke:none;fill:yellow;stroke-width:1px;" id="e257_polygon" points="33817.7 -317.303 33892.7 -497.303 33950.7 -314.303 33791.7 -432.303 33993.7 -429.303" transform="matrix(0.0406073 0.0004404 -0.0004404 0.0406073 -825.656 573.147)"/><polygon style="stroke:none;fill:yellow;stroke-width:1px;" id="e258_polygon" points="33396.5 -1460.05 33471.5 -1640.05 33529.5 -1457.05 33370.5 -1575.05 33572.5 -1572.05" transform="matrix(0.0406073 0.0004404 -0.0004404 0.0406073 -825.656 573.147)"/><polygon style="stroke:none;fill:yellow;stroke-width:1px;" id="e259_polygon" points="32428.8 -774.542 32503.8 -954.542 32561.8 -771.542 32402.8 -889.542 32604.8 -886.542" transform="matrix(0.0406073 0.0004404 -0.0004404 0.0406073 -825.656 573.147)"/><polygon style="stroke:none;fill:yellow;stroke-width:1px;" id="e260_polygon" points="32668.1 2212.73 32743.1 2032.73 32801.1 2215.73 32642.1 2097.73 32844.1 2100.73" transform="matrix(0.0406073 0.0004404 -0.0004404 0.0406073 -825.656 573.147)"/><polygon style="stroke:none;fill:yellow;stroke-width:1px;" id="e261_polygon" points="33138.7 1552.83 33213.7 1372.83 33271.7 1555.83 33112.7 1437.83 33314.7 1440.83" transform="matrix(0.0406073 0.0004404 -0.0004404 0.0406073 -825.656 573.147)"/><polygon style="stroke:none;fill:yellow;stroke-width:1px;" id="e262_polygon" points="31496.3 1334.49 31571.3 1154.49 31629.3 1337.49 31470.3 1219.49 31672.3 1222.49" transform="matrix(0.0406073 0.0004404 -0.0004404 0.0406073 -825.656 573.147)"/><polygon style="stroke:none;fill:yellow;stroke-width:1px;" id="e263_polygon" points="32215.5 3159.13 32290.5 2979.13 32348.5 3162.13 32189.5 3044.13 32391.5 3047.13" transform="matrix(0.0406073 0.0004404 -0.0004404 0.0406073 -825.656 573.147)"/><polygon style="stroke:none;fill:yellow;stroke-width:1px;" id="e264_polygon" points="31743.5 1869.17 31818.5 1689.17 31876.5 1872.17 31717.5 1754.17 31919.5 1757.17" transform="matrix(0.0406073 0.0004404 -0.0004404 0.0406073 -825.656 573.147)"/><polygon style="stroke:none;fill:yellow;stroke-width:1px;" id="e265_polygon" points="31657.4 2101.85 31732.4 1921.85 31790.4 2104.85 31631.4 1986.85 31833.4 1989.85" transform="matrix(0.0406073 0.0004404 -0.0004404 0.0406073 -825.656 573.147)"/><polygon style="stroke:none;fill:yellow;stroke-width:1px;" id="e266_polygon" points="31862.7 4227.58 31937.7 4047.58 31995.7 4230.58 31836.7 4112.58 32038.7 4115.58" transform="matrix(0.0406073 0.0004404 -0.0004404 0.0406073 -825.656 573.147)"/><polygon style="stroke:none;fill:yellow;stroke-width:1px;" id="e267_polygon" points="30940.2 4543.21 31015.2 4363.21 31073.2 4546.21 30914.2 4428.21 31116.2 4431.21" transform="matrix(0.0406073 0.0004404 -0.0004404 0.0406073 -825.656 573.147)"/><polygon style="stroke:none;fill:yellow;stroke-width:1px;" id="e268_polygon" points="31425 5188.34 31500 5008.34 31558 5191.34 31399 5073.34 31601 5076.34" transform="matrix(0.0406073 0.0004404 -0.0004404 0.0406073 -825.656 573.147)"/><polygon style="stroke:none;fill:yellow;stroke-width:1px;" id="e269_polygon" points="28884.9 3945.44 28959.9 3765.44 29017.9 3948.44 28858.9 3830.44 29060.9 3833.44" transform="matrix(0.0406073 0.0004404 -0.0004404 0.0406073 -825.656 573.147)"/><polygon style="stroke:none;fill:yellow;stroke-width:1px;" id="e270_polygon" points="29219.5 4370.56 29294.5 4190.56 29352.5 4373.56 29193.5 4255.56 29395.5 4258.56" transform="matrix(0.0406073 0.0004404 -0.0004404 0.0406073 -825.656 573.147)"/><polygon style="stroke:none;fill:yellow;stroke-width:1px;" id="e271_polygon" points="27848.5 4198.53 27923.5 4018.53 27981.5 4201.53 27822.5 4083.53 28024.5 4086.53" transform="matrix(0.0406073 0.0004404 -0.0004404 0.0406073 -825.656 573.147)"/><polygon style="stroke:none;fill:yellow;stroke-width:1px;" id="e272_polygon" points="29073.3 4958.76 29148.3 4778.76 29206.3 4961.76 29047.3 4843.76 29249.3 4846.77" transform="matrix(0.0406073 0.0004404 -0.0004404 0.0406073 -825.656 573.147)"/><polygon style="stroke:none;fill:yellow;stroke-width:1px;" id="e273_polygon" points="26569.9 4823.64 26644.9 4643.64 26702.9 4826.64 26543.9 4708.64 26745.9 4711.65" transform="matrix(0.0406073 0.0004404 -0.0004404 0.0406073 -825.656 573.147)"/><polygon style="stroke:none;fill:yellow;stroke-width:1px;" id="e274_polygon" points="25111.6 3421.25 25186.6 3241.25 25244.6 3424.25 25085.6 3306.25 25287.6 3309.26" transform="matrix(0.0406073 0.0004404 -0.0004404 0.0406073 -825.656 573.147)"/><polygon style="stroke:none;fill:yellow;stroke-width:1px;" id="e275_polygon" points="25873.1 4605.15 25948.1 4425.15 26006.1 4608.15 25847.1 4490.15 26049.1 4493.16" transform="matrix(0.0406073 0.0004404 -0.0004404 0.0406073 -825.656 573.147)"/><polygon style="stroke:none;fill:yellow;stroke-width:1px;" id="e276_polygon" points="24207.9 4559.44 24282.9 4379.44 24340.9 4562.44 24181.9 4444.44 24383.9 4447.45" transform="matrix(0.0406073 0.0004404 -0.0004404 0.0406073 -825.656 573.147)"/><polygon style="stroke:none;fill:yellow;stroke-width:1px;" id="e277_polygon" points="24534.3 5774.87 24709.3 5434.87 24787.3 5793.87 24504.3 5547.88 24882.3 5558.87" transform="matrix(0.0406073 0.0004404 -0.0004404 0.0406073 -825.656 573.147)"/><polygon style="stroke:none;fill:yellow;stroke-width:1px;" id="e278_polygon" points="25681.2 5603.74 25756.2 5423.74 25814.2 5606.74 25655.2 5488.74 25857.2 5491.74" transform="matrix(0.0406073 0.0004404 -0.0004404 0.0406073 -825.656 573.147)"/><polygon style="stroke:none;fill:yellow;stroke-width:1px;" id="e279_polygon" points="28939.6 5406.13 29014.6 5226.13 29072.6 5409.13 28913.6 5291.13 29115.6 5294.13" transform="matrix(0.0406073 0.0004404 -0.0004404 0.0406073 -825.656 573.147)"/><polygon style="stroke:none;fill:yellow;stroke-width:1px;" id="e280_polygon" points="27990.6 5549.66 28065.6 5369.66 28123.6 5552.66 27964.6 5434.66 28166.6 5437.66" transform="matrix(0.0406073 0.0004404 -0.0004404 0.0406073 -825.656 573.147)"/><polygon style="stroke:none;fill:yellow;stroke-width:1px;" id="e281_polygon" points="41366.5 2730.45 41441.5 2550.46 41499.5 2733.45 41340.5 2615.46 41542.5 2618.46" transform="matrix(0.0406073 0.0004404 -0.0004404 0.0406073 -825.656 573.147)"/><polygon style="stroke:none;fill:yellow;stroke-width:1px;" id="e282_polygon" points="39493.9 -750.033 39668.9 -1090.03 39746.9 -731.033 39463.9 -977.028 39841.9 -966.028" transform="matrix(0.0406073 0.0004404 -0.0004404 0.0406073 -825.656 573.147)"/><polygon style="stroke:none;fill:yellow;stroke-width:1px;" id="e283_polygon" points="40075.7 4302.12 40250.7 3962.12 40328.7 4321.12 40045.7 4075.12 40423.7 4086.12" transform="matrix(0.0406073 0.0004404 -0.0004404 0.0406073 -825.656 573.147)"/><polygon style="stroke:none;fill:yellow;stroke-width:1px;" id="e284_polygon" points="40158.6 2265.24 40233.6 2085.24 40291.6 2268.24 40132.6 2150.24 40334.6 2153.24" transform="matrix(0.0406073 0.0004404 -0.0004404 0.0406073 -825.656 573.147)"/><polygon style="stroke:none;fill:yellow;stroke-width:1px;" id="e285_polygon" points="40621 842.02 40696 662.019 40754 845.02 40595 727.019 40797 730.019" transform="matrix(0.0406073 0.0004404 -0.0004404 0.0406073 -825.656 573.147)"/><polygon style="stroke:none;fill:yellow;stroke-width:1px;" id="e286_polygon" points="40013.6 -1579.27 40088.6 -1759.27 40146.6 -1576.27 39987.6 -1694.27 40189.6 -1691.27" transform="matrix(0.0406073 0.0004404 -0.0004404 0.0406073 -825.656 573.147)"/><polygon style="stroke:none;fill:yellow;stroke-width:1px;" id="e287_polygon" points="37599.1 -4867.5 37674.1 -5047.5 37732.1 -4864.5 37573.1 -4982.5 37775.1 -4979.5" transform="matrix(0.0406073 0.0004404 -0.0004404 0.0406073 -825.656 573.147)"/><polygon style="stroke:none;fill:yellow;stroke-width:1px;" id="e288_polygon" points="36180.5 -7156.86 36255.5 -7336.86 36313.5 -7153.86 36154.5 -7271.86 36356.5 -7268.86" transform="matrix(0.0406073 0.0004404 -0.0004404 0.0406073 -825.656 573.147)"/><polygon style="stroke:none;fill:yellow;stroke-width:1px;" id="e289_polygon" points="34853.6 -5531.66 34928.6 -5711.66 34986.6 -5528.66 34827.6 -5646.66 35029.6 -5643.66" transform="matrix(0.0406073 0.0004404 -0.0004404 0.0406073 -825.656 573.147)"/><polygon style="stroke:none;fill:yellow;stroke-width:1px;" id="e290_polygon" points="34337.2 -6377.86 34412.2 -6557.86 34470.2 -6374.86 34311.2 -6492.86 34513.2 -6489.86" transform="matrix(0.0406073 0.0004404 -0.0004404 0.0406073 -825.656 573.147)"/><polygon style="stroke:none;fill:yellow;stroke-width:1px;" id="e291_polygon" points="35383.5 -6182.09 35458.5 -6362.09 35516.5 -6179.09 35357.5 -6297.09 35559.5 -6294.09" transform="matrix(0.0406073 0.0004404 -0.0004404 0.0406073 -825.656 573.147)"/><polygon style="stroke:none;fill:yellow;stroke-width:1px;" id="e292_polygon" points="34485.3 -3625.75 34560.3 -3805.75 34618.3 -3622.75 34459.3 -3740.75 34661.3 -3737.75" transform="matrix(0.0406073 0.0004404 -0.0004404 0.0406073 -825.656 573.147)"/><polygon style="stroke:none;fill:yellow;stroke-width:1px;" id="e293_polygon" points="35322.1 -4585.13 35397.1 -4765.13 35455.1 -4582.13 35296.1 -4700.13 35498.1 -4697.13" transform="matrix(0.0406073 0.0004404 -0.0004404 0.0406073 -825.656 573.147)"/><polygon style="stroke:none;fill:yellow;stroke-width:1px;" id="e294_polygon" points="39177.3 -1981.84 39252.3 -2161.84 39310.3 -1978.84 39151.3 -2096.84 39353.3 -2093.84" transform="matrix(0.0406073 0.0004404 -0.0004404 0.0406073 -825.656 573.147)"/><polygon style="stroke:none;fill:yellow;stroke-width:1px;" id="e295_polygon" points="38351 -4154.49 38426 -4334.49 38484 -4151.49 38325 -4269.49 38527 -4266.49" transform="matrix(0.0406073 0.0004404 -0.0004404 0.0406073 -825.656 573.147)"/><polygon style="stroke:none;fill:yellow;stroke-width:1px;" id="e296_polygon" points="40591 -2888.12 40666 -3068.12 40724 -2885.12 40565 -3003.12 40767 -3000.12" transform="matrix(0.0406073 0.0004404 -0.0004404 0.0406073 -825.656 573.147)"/><polygon style="stroke:none;fill:yellow;stroke-width:1px;" id="e297_polygon" points="40993.8 -715.283 41068.8 -895.283 41126.8 -712.283 40967.8 -830.283 41169.8 -827.283" transform="matrix(0.0406073 0.0004404 -0.0004404 0.0406073 -825.656 573.147)"/><polygon style="stroke:none;fill:yellow;stroke-width:1px;" id="e298_polygon" points="38422.4 -2573.5 38497.4 -2753.5 38555.4 -2570.5 38396.4 -2688.5 38598.4 -2685.5" transform="matrix(0.0406073 0.0004404 -0.0004404 0.0406073 -825.656 573.147)"/><polygon style="stroke:none;fill:yellow;stroke-width:1px;" id="e299_polygon" points="36988.8 -6241.76 37063.8 -6421.76 37121.8 -6238.76 36962.8 -6356.76 37164.8 -6353.76" transform="matrix(0.0406073 0.0004404 -0.0004404 0.0406073 -825.656 573.147)"/><polygon style="stroke:none;fill:yellow;stroke-width:1px;" id="e300_polygon" points="39937 1296.59 40012 1116.59 40070 1299.59 39911 1181.59 40113 1184.59" transform="matrix(0.0406073 0.0004404 -0.0004404 0.0406073 -825.656 573.147)"/><polygon style="stroke:none;fill:yellow;stroke-width:1px;" id="e301_polygon" points="39544.8 547.543 39619.8 367.543 39677.8 550.543 39518.8 432.543 39720.8 435.543" transform="matrix(0.0406073 0.0004404 -0.0004404 0.0406073 -825.656 573.147)"/><polygon style="stroke:none;fill:yellow;stroke-width:1px;" id="e302_polygon" points="37826.9 182.265 37901.9 2.26484 37959.9 185.265 37800.9 67.2648 38002.9 70.2648" transform="matrix(0.0406073 0.0004404 -0.0004404 0.0406073 -825.656 573.147)"/><polygon style="stroke:none;fill:yellow;stroke-width:1px;" id="e303_polygon" points="38853.5 -1444.08 38928.5 -1624.08 38986.5 -1441.08 38827.5 -1559.08 39029.5 -1556.08" transform="matrix(0.0406073 0.0004404 -0.0004404 0.0406073 -825.656 573.147)"/><polygon style="stroke:none;fill:yellow;stroke-width:1px;" id="e304_polygon" points="37825.6 -1767.59 37900.6 -1947.59 37958.6 -1764.59 37799.6 -1882.59 38001.6 -1879.59" transform="matrix(0.0406073 0.0004404 -0.0004404 0.0406073 -825.656 573.147)"/><polygon style="stroke:none;fill:yellow;stroke-width:1px;" id="e305_polygon" points="38610.1 -731.693 38685.1 -911.693 38743.1 -728.693 38584.1 -846.693 38786.1 -843.693" transform="matrix(0.0406073 0.0004404 -0.0004404 0.0406073 -825.656 573.147)"/><polygon style="stroke:none;fill:yellow;stroke-width:1px;" id="e306_polygon" points="31646 -24.6419 31821 -364.637 31899 -5.64188 31616 -251.637 31994 -240.637" transform="matrix(0.0406073 0.0004404 -0.0004404 0.0406073 -825.656 573.147)"/><polygon style="stroke:none;fill:yellow;stroke-width:1px;" id="e307_polygon" points="40280.2 2723.83 40455.2 2383.83 40533.2 2742.83 40250.2 2496.83 40628.2 2507.83" transform="matrix(0.0406073 0.0004404 -0.0004404 0.0406073 -825.656 573.147)"/><polygon style="stroke:none;fill:yellow;stroke-width:1px;" id="e308_polygon" points="40851.6 751.124 40926.6 571.122 40984.6 754.124 40825.6 636.123 41027.6 639.123" transform="matrix(0.0406073 0.0004404 -0.0004404 0.0406073 -825.656 573.147)"/><polygon style="stroke:none;fill:yellow;stroke-width:1px;" id="e309_polygon" points="40451.9 -687.373 40526.9 -867.375 40584.9 -684.373 40425.9 -802.374 40627.9 -799.374" transform="matrix(0.0406073 0.0004404 -0.0004404 0.0406073 -825.656 573.147)"/><polygon style="stroke:none;fill:yellow;stroke-width:1px;" id="e310_polygon" points="41740.6 3692.21 41815.6 3512.21 41873.6 3695.21 41714.6 3577.21 41916.6 3580.21" transform="matrix(0.0406073 0.0004404 -0.0004404 0.0406073 -825.656 573.147)"/><polygon style="stroke:none;fill:yellow;stroke-width:1px;" id="e311_polygon" points="41682.7 1979.12 41757.7 1799.12 41815.7 1982.12 41656.7 1864.12 41858.7 1867.12" transform="matrix(0.0406073 0.0004404 -0.0004404 0.0406073 -825.656 573.147)"/><polygon style="stroke:none;fill:yellow;stroke-width:1px;" id="e312_polygon" points="48102.7 4923.99 48177.7 4743.99 48235.7 4926.99 48076.7 4808.99 48278.7 4811.99" transform="matrix(0.0406073 0.0004404 -0.0004404 0.0406073 -825.656 573.147)"/><polygon style="stroke:none;fill:yellow;stroke-width:1px;" id="e313_polygon" points="47017.5 3862.32 47092.5 3682.32 47150.5 3865.32 46991.5 3747.32 47193.5 3750.32" transform="matrix(0.0406073 0.0004404 -0.0004404 0.0406073 -825.656 573.147)"/><polygon style="stroke:none;fill:yellow;stroke-width:1px;" id="e314_polygon" points="47108 4487.1 47183 4307.1 47241 4490.1 47082 4372.1 47284 4375.1" transform="matrix(0.0406073 0.0004404 -0.0004404 0.0406073 -825.656 573.147)"/><polygon style="stroke:none;fill:yellow;stroke-width:1px;" id="e315_polygon" points="46399.9 4135.5 46474.9 3955.5 46532.9 4138.5 46373.9 4020.5 46575.9 4023.5" transform="matrix(0.0406073 0.0004404 -0.0004404 0.0406073 -825.656 573.147)"/><polygon style="stroke:none;fill:yellow;stroke-width:1px;" id="e316_polygon" points="45173.4 3666.39 45248.4 3486.39 45306.4 3669.39 45147.4 3551.39 45349.4 3554.39" transform="matrix(0.0406073 0.0004404 -0.0004404 0.0406073 -825.656 573.147)"/><polygon style="stroke:none;fill:yellow;stroke-width:1px;" id="e317_polygon" points="43385.6 3671.26 43460.6 3491.26 43518.6 3674.26 43359.6 3556.26 43561.6 3559.26" transform="matrix(0.0406073 0.0004404 -0.0004404 0.0406073 -825.656 573.147)"/><polygon style="stroke:none;fill:yellow;stroke-width:1px;" id="e318_polygon" points="45496.3 4372.63 45571.3 4192.63 45629.3 4375.63 45470.3 4257.63 45672.3 4260.63" transform="matrix(0.0406073 0.0004404 -0.0004404 0.0406073 -825.656 573.147)"/><polygon style="stroke:none;fill:yellow;stroke-width:1px;" id="e319_polygon" points="45685.6 5020.96 45760.6 4840.96 45818.6 5023.96 45659.6 4905.96 45861.6 4908.96" transform="matrix(0.0406073 0.0004404 -0.0004404 0.0406073 -825.656 573.147)"/><polygon style="stroke:none;fill:yellow;stroke-width:1px;" id="e320_polygon" points="42107.5 7975.76 42182.5 7795.76 42240.5 7978.76 42081.5 7860.76 42283.5 7863.76" transform="matrix(0.0406073 0.0004404 -0.0004404 0.0406073 -825.656 573.147)"/><polygon style="stroke:none;fill:yellow;stroke-width:1px;" id="e321_polygon" points="40085.7 4312.12 40260.7 3972.12 40338.7 4331.12 40055.7 4085.12 40433.7 4096.12" transform="matrix(0.0406073 0.0004404 -0.0004404 0.0406073 -825.656 573.147)"/><polygon style="stroke:none;fill:yellow;stroke-width:1px;" id="e322_polygon" points="44761.4 6280.75 44936.4 5940.75 45014.4 6299.75 44731.4 6053.75 45109.4 6064.75" transform="matrix(0.0406073 0.0004404 -0.0004404 0.0406073 -825.656 573.147)"/><polygon style="stroke:none;fill:yellow;stroke-width:1px;" id="e323_polygon" points="43786.3 6402.57 43861.3 6222.57 43919.3 6405.57 43760.3 6287.58 43962.3 6290.58" transform="matrix(0.0406073 0.0004404 -0.0004404 0.0406073 -825.656 573.147)"/><polygon style="stroke:none;fill:yellow;stroke-width:1px;" id="e324_polygon" points="42184.6 5395.75 42259.6 5215.75 42317.6 5398.75 42158.6 5280.77 42360.6 5283.77" transform="matrix(0.0406073 0.0004404 -0.0004404 0.0406073 -825.656 573.147)"/><polygon style="stroke:none;fill:yellow;stroke-width:1px;" id="e325_polygon" points="42374 3778.48 42449 3598.48 42507 3781.48 42348 3663.5 42550 3666.5" transform="matrix(0.0406073 0.0004404 -0.0004404 0.0406073 -825.656 573.147)"/></svg>